<svg width="24" height="24" viewBox="0 0 24 24" fill="none" xmlns="http://www.w3.org/2000/svg" stroke-width="2" stroke-linecap="round" stroke-linejoin="round">
<path d="M6 4.5H14C15.0609 4.5 16.0783 4.92143 16.8284 5.67157C17.5786 6.42172 18 7.43913 18 8.5C18 9.56087 17.5786 10.5783 16.8284 11.3284C16.0783 12.0786 15.0609 12.5 14 12.5H6V4.5Z"/>
<path d="M6 12.5H15C16.0609 12.5 17.0783 12.9214 17.8284 13.6716C18.5786 14.4217 19 15.4391 19 16.5C19 17.5609 18.5786 18.5783 17.8284 19.3284C17.0783 20.0786 16.0609 20.5 15 20.5H6V12.5Z"/>
</svg>
