<svg width="24" height="24" viewBox="0 0 24 24" xmlns="http://www.w3.org/2000/svg" fill="#646464" stroke="#646464" stroke-width="0.2">
<path d="M9.35935 8.30656C9.25681 8.41449 9.20005 8.55984 9.20005 8.71038C9.20005 8.86092 9.25681 9.00626 9.35935 9.1142C9.46205 9.22231 9.60248 9.28406 9.75005 9.28406H11.55H13.35C13.4976 9.28406 13.638 9.22231 13.7407 9.1142C13.8433 9.00626 13.9 8.86092 13.9 8.71038C13.9 8.55984 13.8433 8.41449 13.7407 8.30656C13.638 8.19845 13.4976 8.13669 13.35 8.13669H9.75005C9.60248 8.13669 9.46205 8.19845 9.35935 8.30656ZM9.75005 10.0314C9.60248 10.0314 9.46205 10.0932 9.35935 10.2013C9.25681 10.3092 9.20005 10.4546 9.20005 10.6051C9.20005 10.7557 9.25681 10.901 9.35935 11.0089C9.46205 11.117 9.60248 11.1788 9.75005 11.1788H13.35C13.4976 11.1788 13.638 11.117 13.7407 11.0089C13.8433 10.901 13.9 10.7557 13.9 10.6051C13.9 10.4546 13.8433 10.3092 13.7407 10.2013C13.638 10.0932 13.4976 10.0314 13.35 10.0314H9.75005ZM9.35935 14.4645C9.25681 14.5724 9.20005 14.7177 9.20005 14.8683C9.20005 15.0188 9.25681 15.1642 9.35935 15.2721C9.46205 15.3802 9.60248 15.442 9.75005 15.442H13.35C13.4976 15.442 13.638 15.3802 13.7407 15.2721C13.8433 15.1642 13.9 15.0188 13.9 14.8683C13.9 14.7177 13.8433 14.5724 13.7407 14.4645C13.638 14.3563 13.4976 14.2946 13.35 14.2946H9.75005C9.60248 14.2946 9.46205 14.3563 9.35935 14.4645ZM9.75005 16.1893C9.60248 16.1893 9.46205 16.2511 9.35935 16.3592C9.25681 16.4671 9.20005 16.6125 9.20005 16.763C9.20005 16.9136 9.25681 17.0589 9.35935 17.1668C9.46205 17.2749 9.60248 17.3367 9.75005 17.3367H13.35C13.4976 17.3367 13.638 17.2749 13.7407 17.1668C13.8433 17.0589 13.9 16.9135 13.9 16.763C13.9 16.6125 13.8433 16.4671 13.7407 16.3592C13.638 16.2511 13.4976 16.1893 13.35 16.1893H9.75005Z"/>
<path d="M4.70005 14.3947C4.70005 14.2442 4.75681 14.0988 4.85935 13.9909C4.96205 13.8828 5.10248 13.821 5.25005 13.821H7.50005C7.64762 13.821 7.78805 13.8828 7.89075 13.9909C7.99329 14.0988 8.05005 14.2442 8.05005 14.3947V16.7631C8.05005 16.9137 7.99329 17.059 7.89075 17.1669C7.78805 17.2751 7.64762 17.3368 7.50005 17.3368H5.25005C5.10248 17.3368 4.96205 17.2751 4.85935 17.1669M4.70005 14.3947L4.85935 17.1669M4.70005 14.3947V16.7631C4.70005 16.9137 4.75681 17.059 4.85935 17.1669M4.70005 14.3947L4.85935 17.1669M6.95005 16.1894H5.80005V14.9684H6.95005V16.1894Z" stroke=""/>
<path d="M8.34079 9.11443L8.3408 9.11444L8.34197 9.11316C8.44152 9.00467 8.49582 8.86037 8.49459 8.71154C8.49336 8.5627 8.43668 8.41937 8.3353 8.31266C8.23377 8.20578 8.09531 8.14415 7.94943 8.14282C7.80354 8.14149 7.66403 8.20058 7.56069 8.30564L7.56068 8.30563L7.55949 8.30689L6.15014 9.79042L5.64078 9.25426L5.6408 9.25425L5.63958 9.25301C5.53624 9.14795 5.39673 9.08885 5.25084 9.09019C5.10496 9.09152 4.9665 9.15315 4.86497 9.26003C4.76359 9.36674 4.70691 9.51007 4.70568 9.65891C4.70446 9.80774 4.75875 9.95204 4.8583 10.0605L4.85829 10.0605L4.85948 10.0618L6.07764 11.3441L6.15014 11.4204L6.22263 11.3441L8.34079 9.11443Z" fill="#646464" stroke-width="0.2"/>
<path d="M4.14286 3.4C3.55016 3.4 2.98046 3.61969 2.5594 4.01268C2.1381 4.40589 1.9 4.94073 1.9 5.5V19.5C1.9 20.0593 2.1381 20.5941 2.5594 20.9873C2.98046 21.3803 3.55016 21.6 4.14286 21.6H14.8571C15.4498 21.6 16.0195 21.3803 16.4406 20.9873C16.8619 20.5941 17.1 20.0593 17.1 19.5V5.5C17.1 4.94073 16.8619 4.40589 16.4406 4.01268C16.0195 3.61969 15.4498 3.4 14.8571 3.4H4.14286ZM3.17143 5.5C3.17143 5.26362 3.27198 5.0354 3.45347 4.866C3.63521 4.69638 3.88308 4.6 4.14286 4.6H14.8571C15.1169 4.6 15.3648 4.69638 15.5465 4.866C15.728 5.0354 15.8286 5.26362 15.8286 5.5V19.5C15.8286 19.7364 15.728 19.9646 15.5465 20.134C15.3648 20.3036 15.1169 20.4 14.8571 20.4H4.14286C3.88308 20.4 3.63521 20.3036 3.45347 20.134C3.27198 19.9646 3.17143 19.7364 3.17143 19.5V5.5Z" fill="#646464" stroke-width="0.2"/>
<path d="M22.0832 18.707L22.1 18.6818V18.6515V8.5C22.1 8.07565 21.9314 7.66869 21.6314 7.36863C21.3313 7.06857 20.9243 6.9 20.5 6.9C20.0757 6.9 19.6687 7.06857 19.3686 7.36863C19.0686 7.66869 18.9 8.07565 18.9 8.5V18.6515V18.6818L18.9168 18.707L20.4168 20.957L20.5 21.0818L20.5832 20.957L22.0832 18.707ZM20.2172 8.21716C20.2922 8.14214 20.3939 8.1 20.5 8.1C20.6061 8.1 20.7078 8.14214 20.7828 8.21716C20.8579 8.29217 20.9 8.39391 20.9 8.5V9.4H20.1V8.5C20.1 8.39391 20.1421 8.29217 20.2172 8.21716ZM20.5 18.9182L20.1 18.3182V10.6H20.9V18.3182L20.5 18.9182Z" fill="#646464" stroke-width="0.2"/>
</svg>
