<svg width="24" height="24" viewBox="0 0 24 24" fill="none" xmlns="http://www.w3.org/2000/svg">
<path d="M22.275 14.7294L15.8559 4.20501C15.7216 3.98869 15.5343 3.81034 15.3116 3.68693C15.0889 3.56353 14.8383 3.49918 14.5837 3.50001H9.41528C9.16081 3.49916 8.91037 3.56351 8.68783 3.68692C8.46529 3.81034 8.27807 3.9887 8.14403 4.20501L8.13934 4.21157L1.72872 14.7219C1.58493 14.9517 1.50612 15.2162 1.50067 15.4873C1.49522 15.7584 1.56334 16.0258 1.69778 16.2613L4.25903 20.7444C4.39023 20.9739 4.57978 21.1647 4.80846 21.2974C5.03714 21.4301 5.29683 21.5 5.56122 21.5H18.4378C18.7022 21.5 18.9619 21.4301 19.1905 21.2974C19.4192 21.1647 19.6088 20.9739 19.74 20.7444L22.3012 16.2613C22.4358 16.0274 22.5044 15.7615 22.4998 15.4917C22.4952 15.2219 22.4175 14.9585 22.275 14.7294ZM20.5312 14.75H16.1737L12.8747 9.2497L15.0075 5.6947L20.5312 14.75ZM9.57465 14.75L12 10.7075L14.4253 14.75H9.57465ZM15.3253 16.25L17.5753 20H6.42465L8.67465 16.25H15.3253ZM12 7.79188L10.3237 5.00001L13.6781 4.99532L12 7.79188ZM8.99153 5.6947L11.1253 9.2497L7.82528 14.75H3.46872L8.99153 5.6947ZM3.42559 16.25H6.92528L5.12997 19.2425L3.42559 16.25ZM18.87 19.2434L17.0737 16.25H20.5809L18.87 19.2434Z" fill="#646464"/>
</svg>
