<svg width="24" height="24" viewBox="0 0 24 24" fill="none" xmlns="http://www.w3.org/2000/svg">
<path d="M7.5 2H12.8789C13.1087 1.9999 13.3365 2.04501 13.5488 2.13281C13.708 2.19867 13.8565 2.2877 13.9893 2.39648L14.1172 2.51172L18.4863 6.88477C18.7735 7.17158 18.951 7.54791 18.9912 7.94824L19 8.12109L18.9619 13.584C18.951 13.5842 18.9406 13.5847 18.9307 13.585C18.9001 13.5857 18.8744 13.5865 18.8564 13.5869C18.8541 13.587 18.8517 13.5869 18.8496 13.5869L18.5 13.5801V8.5H14.25C13.7859 8.5 13.3409 8.31549 13.0127 7.9873C12.6845 7.65912 12.5 7.21413 12.5 6.75V2.5H7.5C6.96957 2.5 6.46101 2.71086 6.08594 3.08594C5.71086 3.46101 5.5 3.96957 5.5 4.5V13.1279H5V4.5L5.0127 4.25293C5.0614 3.76244 5.25404 3.2973 5.56641 2.91602L5.73242 2.73242C6.20126 2.26358 6.83696 2 7.5 2ZM13 6.75C13 7.08152 13.1318 7.39937 13.3662 7.63379C13.6006 7.86821 13.9185 8 14.25 8H18.8965L13 2.10352V6.75Z" fill="#646464" stroke="#646464"/>
<path d="M2.70784 21C2.6532 21 2.6085 20.9826 2.57373 20.9478C2.53895 20.9131 2.52157 20.8684 2.52157 20.8137V15.9706C2.52157 15.9159 2.53895 15.8712 2.57373 15.8365C2.6085 15.8017 2.6532 15.7843 2.70784 15.7843H3.70627C3.76092 15.7843 3.80562 15.8017 3.84039 15.8365C3.87516 15.8712 3.89255 15.9159 3.89255 15.9706V20.8137C3.89255 20.8684 3.87516 20.9131 3.84039 20.9478C3.80562 20.9826 3.76092 21 3.70627 21H2.70784ZM5.12359 21C5.06895 21 5.02424 20.9826 4.98947 20.9478C4.9547 20.9131 4.93732 20.8684 4.93732 20.8137V15.9706C4.93732 15.9159 4.9547 15.8712 4.98947 15.8365C5.02424 15.8017 5.06895 15.7843 5.12359 15.7843H8.6032C8.65784 15.7843 8.70255 15.8017 8.73732 15.8365C8.77209 15.8712 8.78947 15.9159 8.78947 15.9706V16.671C8.78947 16.7256 8.77209 16.7703 8.73732 16.8051C8.70255 16.8399 8.65784 16.8573 8.6032 16.8573H6.22634V17.8631H8.43928C8.49392 17.8631 8.53862 17.883 8.5734 17.9227C8.60817 17.9575 8.62555 18.0022 8.62555 18.0569V18.7051C8.62555 18.7548 8.60817 18.7995 8.5734 18.8392C8.53862 18.874 8.49392 18.8914 8.43928 18.8914H6.22634V19.9271H8.66281C8.71745 19.9271 8.76215 19.9444 8.79692 19.9792C8.8317 20.014 8.84908 20.0587 8.84908 20.1133V20.8137C8.84908 20.8684 8.8317 20.9131 8.79692 20.9478C8.76215 20.9826 8.71745 21 8.66281 21H5.12359ZM9.88232 21C9.82768 21 9.78298 20.9826 9.74821 20.9478C9.71343 20.9131 9.69605 20.8684 9.69605 20.8137V15.9706C9.69605 15.9159 9.71343 15.8712 9.74821 15.8365C9.78298 15.8017 9.82768 15.7843 9.88232 15.7843H10.8659C10.9155 15.7843 10.9577 15.8017 10.9925 15.8365C11.0323 15.8712 11.0521 15.9159 11.0521 15.9706V19.8749H13.3023C13.357 19.8749 13.4017 19.8948 13.4364 19.9345C13.4762 19.9693 13.496 20.014 13.496 20.0686V20.8137C13.496 20.8684 13.4762 20.9131 13.4364 20.9478C13.4017 20.9826 13.357 21 13.3023 21H9.88232ZM14.6752 21C14.6206 21 14.5759 20.9826 14.5411 20.9478C14.5063 20.9131 14.4889 20.8684 14.4889 20.8137V16.9541H13.1627C13.108 16.9541 13.0633 16.9367 13.0286 16.902C12.9938 16.8622 12.9764 16.8175 12.9764 16.7678V15.9706C12.9764 15.9159 12.9938 15.8712 13.0286 15.8365C13.0633 15.8017 13.108 15.7843 13.1627 15.7843H17.1713C17.2259 15.7843 17.2706 15.8017 17.3054 15.8365C17.3402 15.8712 17.3576 15.9159 17.3576 15.9706V16.7678C17.3576 16.8175 17.3402 16.8622 17.3054 16.902C17.2706 16.9367 17.2259 16.9541 17.1713 16.9541H15.845V20.8137C15.845 20.8684 15.8276 20.9131 15.7929 20.9478C15.7581 20.9826 15.7134 21 15.6588 21H14.6752ZM19.9649 21.0745C19.4682 21.0745 19.0559 21.005 18.728 20.8659C18.4002 20.7218 18.1518 20.5356 17.9829 20.3071C17.814 20.0786 17.7246 19.8352 17.7147 19.5769C17.7147 19.5371 17.7296 19.5024 17.7594 19.4725C17.7942 19.4378 17.8339 19.4204 17.8786 19.4204H18.8174C18.887 19.4204 18.9391 19.4328 18.9739 19.4576C19.0137 19.4825 19.0484 19.5148 19.0782 19.5545C19.118 19.629 19.1726 19.701 19.2422 19.7706C19.3167 19.8401 19.411 19.8973 19.5253 19.942C19.6445 19.9817 19.791 20.0016 19.9649 20.0016C20.253 20.0016 20.4691 19.9569 20.6131 19.8675C20.7622 19.778 20.8367 19.6563 20.8367 19.5024C20.8367 19.3931 20.7969 19.3037 20.7174 19.2341C20.638 19.1596 20.5088 19.095 20.33 19.0404C20.1561 18.9808 19.9227 18.9212 19.6296 18.8616C19.2521 18.7821 18.9292 18.6803 18.661 18.5561C18.3977 18.4269 18.1965 18.2605 18.0574 18.0569C17.9184 17.8482 17.8488 17.5899 17.8488 17.282C17.8488 16.979 17.9333 16.7082 18.1022 16.4698C18.276 16.2314 18.5169 16.0451 18.8249 15.911C19.1329 15.7769 19.498 15.7098 19.9202 15.7098C20.2629 15.7098 20.5635 15.7545 20.8218 15.8439C21.085 15.9333 21.3061 16.0525 21.4849 16.2016C21.6637 16.3506 21.7978 16.5095 21.8872 16.6784C21.9816 16.8424 22.0313 17.0038 22.0363 17.1627C22.0363 17.2025 22.0214 17.2397 21.9916 17.2745C21.9618 17.3043 21.9245 17.3192 21.8798 17.3192H20.8963C20.8416 17.3192 20.7944 17.3093 20.7547 17.2894C20.715 17.2695 20.6802 17.2373 20.6504 17.1925C20.6206 17.0833 20.5411 16.9889 20.412 16.9094C20.2878 16.825 20.1239 16.7827 19.9202 16.7827C19.7016 16.7827 19.5303 16.8225 19.4061 16.902C19.2869 16.9765 19.2272 17.0932 19.2272 17.2522C19.2272 17.3515 19.2595 17.4384 19.3241 17.5129C19.3937 17.5875 19.5054 17.652 19.6594 17.7067C19.8184 17.7613 20.0344 17.8184 20.3076 17.878C20.7597 17.9625 21.1248 18.0693 21.4029 18.1984C21.6811 18.3226 21.8848 18.4865 22.0139 18.6902C22.1431 18.8889 22.2076 19.1397 22.2076 19.4427C22.2076 19.7805 22.1108 20.0736 21.9171 20.322C21.7283 20.5654 21.465 20.7516 21.1272 20.8808C20.7895 21.0099 20.402 21.0745 19.9649 21.0745Z" fill="#646464"/>
</svg>
