<svg width="24" height="24" viewBox="0 0 24 24" fill="white" xmlns="http://www.w3.org/2000/svg" >
<g clip-path="url(#clip0_6001_1978)">
<path d="M20.4727 3.39844C20.582 3.46094 20.6719 3.55078 20.7422 3.66797C20.8125 3.78516 20.8477 3.91016 20.8477 4.04297C20.8477 4.10547 20.8398 4.16406 20.8242 4.21875C20.8086 4.27344 20.7891 4.32812 20.7656 4.38281L12.4805 20.9648C12.4102 21.1133 12.3008 21.2227 12.1523 21.293L10.125 22.3125C9.875 22.4375 9.60547 22.5 9.31641 22.5H9.21094C9.17969 22.5 9.14062 22.4961 9.09375 22.4883L8.54297 23.5898C8.48047 23.7148 8.39062 23.8125 8.27344 23.8828C8.15625 23.9531 8.02344 23.9922 7.875 24C7.67188 24 7.49609 23.9258 7.34766 23.7773C7.19922 23.6289 7.125 23.4531 7.125 23.25C7.125 23.1562 7.15234 23.0391 7.20703 22.8984C7.26172 22.7578 7.32422 22.6133 7.39453 22.4648C7.46484 22.3164 7.54297 22.1719 7.62891 22.0312C7.71484 21.8906 7.77344 21.7812 7.80469 21.7031C7.60156 21.3906 7.5 21.0508 7.5 20.6836V18.75C7.5 18.625 7.52734 18.5117 7.58203 18.4102L14.332 4.91016L13.5703 4.53516L10.793 10.0898C10.7305 10.2148 10.6406 10.3125 10.5234 10.3828C10.4062 10.4531 10.2734 10.4922 10.125 10.5C9.92188 10.5 9.74609 10.4258 9.59766 10.2773C9.44922 10.1289 9.375 9.95312 9.375 9.75C9.375 9.64844 9.40234 9.53516 9.45703 9.41016L12.2578 3.80859C12.3828 3.55859 12.5508 3.36328 12.7617 3.22266C12.9727 3.08203 13.2188 3.00781 13.5 3C13.7734 3 14.0312 3.06641 14.2734 3.19922C14.5156 3.33203 14.7578 3.45703 15 3.57422L15.832 1.91016C15.8945 1.77734 15.9844 1.67578 16.1016 1.60547C16.2188 1.53516 16.3516 1.5 16.5 1.5C16.6016 1.5 16.6875 1.51562 16.7578 1.54688C16.8516 1.35938 16.9414 1.17578 17.0273 0.996094C17.1133 0.816406 17.2148 0.648438 17.332 0.492188C17.4492 0.335938 17.5898 0.21875 17.7539 0.140625C17.918 0.0625 18.125 0.015625 18.375 0C18.625 0 18.8633 0.0585938 19.0898 0.175781L20.1914 0.726562C20.4414 0.851562 20.6367 1.01562 20.7773 1.21875C20.918 1.42188 20.9922 1.67188 21 1.96875C21 2.23438 20.9414 2.48047 20.8242 2.70703C20.707 2.93359 20.5898 3.16406 20.4727 3.39844ZM18.1055 2.21484L19.125 2.71875L19.4648 2.03906L18.4453 1.53516L18.1055 2.21484ZM19.0898 4.38281L16.8398 3.25781L9 18.9258V20.6836C9 20.7695 9.03125 20.8438 9.09375 20.9062C9.15625 20.9688 9.23047 21 9.31641 21C9.34766 21 9.41016 20.9805 9.50391 20.9414C9.59766 20.9023 9.71094 20.8516 9.84375 20.7891C9.97656 20.7266 10.1133 20.6602 10.2539 20.5898C10.3945 20.5195 10.5352 20.4453 10.6758 20.3672C10.8164 20.2891 10.9336 20.2266 11.0273 20.1797C11.1211 20.1328 11.1953 20.0938 11.25 20.0625L19.0898 4.38281ZM21 9C21.4141 9 21.8008 9.07812 22.1602 9.23438C22.5195 9.39062 22.8398 9.60547 23.1211 9.87891C23.4023 10.1523 23.6172 10.4688 23.7656 10.8281C23.9141 11.1875 23.9922 11.5781 24 12C24 12.4141 23.9219 12.8008 23.7656 13.1602C23.6094 13.5195 23.3945 13.8398 23.1211 14.1211C22.8477 14.4023 22.5312 14.6172 22.1719 14.7656C21.8125 14.9141 21.4219 14.9922 21 15H17.625L18.375 13.5H21C21.2109 13.5 21.4062 13.4609 21.5859 13.3828C21.7656 13.3047 21.9219 13.1992 22.0547 13.0664C22.1875 12.9336 22.2969 12.7734 22.3828 12.5859C22.4688 12.3984 22.5078 12.2031 22.5 12C22.5 11.7891 22.4609 11.5938 22.3828 11.4141C22.3047 11.2344 22.1992 11.0781 22.0664 10.9453C21.9336 10.8125 21.7734 10.7031 21.5859 10.6172C21.3984 10.5312 21.2031 10.4922 21 10.5C20.7969 10.5 20.6211 10.4258 20.4727 10.2773C20.3242 10.1289 20.25 9.95312 20.25 9.75C20.25 9.54688 20.3242 9.37109 20.4727 9.22266C20.6211 9.07422 20.7969 9 21 9ZM1.5 18.75C1.5 19.2656 1.59766 19.75 1.79297 20.2031C1.98828 20.6562 2.25391 21.0547 2.58984 21.3984C2.92578 21.7422 3.32422 22.0117 3.78516 22.207C4.24609 22.4023 4.73438 22.5 5.25 22.5H5.76562C5.72656 22.6172 5.69531 22.7383 5.67188 22.8633C5.64844 22.9883 5.63281 23.1172 5.625 23.25C5.625 23.3828 5.63672 23.5117 5.66016 23.6367C5.68359 23.7617 5.71875 23.8828 5.76562 24H5.25C4.52344 24 3.84375 23.8633 3.21094 23.5898C2.57812 23.3164 2.02344 22.9414 1.54688 22.4648C1.07031 21.9883 0.695312 21.4336 0.421875 20.8008C0.148438 20.168 0.0078125 19.4844 0 18.75C0 18.0234 0.136719 17.3438 0.410156 16.7109C0.683594 16.0781 1.05859 15.5234 1.53516 15.0469C2.01172 14.5703 2.56641 14.1953 3.19922 13.9219C3.83203 13.6484 4.51562 13.5078 5.25 13.5H7.875L7.125 15H5.25C4.73438 15 4.25 15.0977 3.79688 15.293C3.34375 15.4883 2.94531 15.7578 2.60156 16.1016C2.25781 16.4453 1.98828 16.8438 1.79297 17.2969C1.59766 17.75 1.5 18.2344 1.5 18.75Z"/>
</g>
<defs>
<clipPath id="clip0_6001_1978">
<rect width="24" height="24"/>
</clipPath>
</defs>
</svg>
