<svg width="24" height="24" viewBox="0 0 24 24" fill="none" xmlns="http://www.w3.org/2000/svg" stroke="#646464" stroke-width="2" stroke-linecap="round" stroke-linejoin="round">
<g clip-path="url(#clip0_2021_3348)">
<path d="M16 16.5L12 12.5L8 16.5"/>
<path d="M12 12.5V21.5"/>
<path d="M20.39 18.89C21.3653 18.3583 22.1358 17.5169 22.5798 16.4986C23.0239 15.4804 23.1162 14.3432 22.8422 13.2667C22.5682 12.1901 21.9434 11.2355 21.0666 10.5534C20.1898 9.87137 19.1108 9.50072 18 9.49998H16.74C16.4373 8.32923 15.8731 7.24232 15.0899 6.32098C14.3067 5.39964 13.3248 4.66783 12.2181 4.18059C11.1113 3.69335 9.90851 3.46334 8.70008 3.50787C7.49164 3.55239 6.30903 3.87028 5.24114 4.43765C4.17325 5.00501 3.24787 5.80709 2.53458 6.78357C1.82129 7.76004 1.33865 8.88552 1.12294 10.0754C0.90723 11.2652 0.964065 12.4885 1.28917 13.6532C1.61428 14.818 2.1992 15.8938 2.99996 16.8"/>
<path d="M16 16.5L12 12.5L8 16.5"/>
</g>
<defs>
<clipPath id="clip0_2021_3348">
<rect width="24" height="24" fill="white" transform="translate(0 0.5)"/>
</clipPath>
</defs>
</svg>
