
<svg width="234" height="53" viewBox="0 0 234 53" fill="none" xmlns="http://www.w3.org/2000/svg">
<path d="M38.7106 0.678711H37.6475V52.8956H38.7106V0.678711Z" fill="#9FFFFF"/>
<path d="M34.2311 0.678711H33.168V52.8956H34.2311V0.678711Z" fill="#9FFFFF"/>
<path d="M29.7341 0.678589H28.6709V52.8955H29.7341V0.678589Z" fill="#9FFFFF"/>
<path d="M38.7106 0.678711H37.6475V52.8956H38.7106V0.678711Z" fill="#3BC4C4"/>
<path d="M34.2311 0.678711H33.168V52.8956H34.2311V0.678711Z" fill="#3BC4C4"/>
<path d="M29.7341 0.678589H28.6709V52.8955H29.7341V0.678589Z" fill="#3BC4C4"/>
<path d="M95.5446 0.678711H94.4814V52.8956H95.5446V0.678711Z" fill="#9FFFFF"/>
<path d="M91.0651 0.678711H90.002V52.8956H91.0651V0.678711Z" fill="#9FFFFF"/>
<path d="M86.569 0.678589H85.5059V52.8955H86.569V0.678589Z" fill="#9FFFFF"/>
<path d="M95.5446 0.678711H94.4814V52.8956H95.5446V0.678711Z" fill="#3BC4C4"/>
<path d="M91.0651 0.678711H90.002V52.8956H91.0651V0.678711Z" fill="#3BC4C4"/>
<path d="M86.569 0.678589H85.5059V52.8955H86.569V0.678589Z" fill="#3BC4C4"/>
<path d="M135.423 51.7451H117.262V52.8083H135.423V51.7451Z" fill="#9FFFFF"/>
<path d="M135.405 47.5275H117.244V48.5906H135.405V47.5275Z" fill="#9FFFFF"/>
<path d="M135.423 43.2922H117.262V44.3554H135.423V43.2922Z" fill="#9FFFFF"/>
<path d="M135.423 51.7451H117.262V52.8083H135.423V51.7451Z" fill="#3BC4C4"/>
<path d="M135.405 47.5275H117.244V48.5906H135.405V47.5275Z" fill="#3BC4C4"/>
<path d="M135.423 43.2922H117.262V44.3554H135.423V43.2922Z" fill="#3BC4C4"/>
<path d="M191.979 30.4995H171.988V31.5627H191.979V30.4995Z" fill="#9FFFFF"/>
<path d="M191.962 26.2643H171.971V27.3274H191.962V26.2643Z" fill="#9FFFFF"/>
<path d="M191.979 22.0464H171.988V23.1095H191.979V22.0464Z" fill="#9FFFFF"/>
<path d="M191.979 30.4995H171.988V31.5627H191.979V30.4995Z" fill="#3BC4C4"/>
<path d="M191.962 26.2643H171.971V27.3274H191.962V26.2643Z" fill="#3BC4C4"/>
<path d="M191.979 22.0464H171.988V23.1095H191.979V22.0464Z" fill="#3BC4C4"/>
<path d="M191.979 9.13159H171.988V10.1948H191.979V9.13159Z" fill="#9FFFFF"/>
<path d="M191.962 4.9137H171.971V5.97686H191.962V4.9137Z" fill="#9FFFFF"/>
<path d="M191.979 0.678711H171.988V1.74187H191.979V0.678711Z" fill="#9FFFFF"/>
<path d="M191.979 9.13159H171.988V10.1948H191.979V9.13159Z" fill="#3BC4C4"/>
<path d="M191.962 4.9137H171.971V5.97686H191.962V4.9137Z" fill="#3BC4C4"/>
<path d="M191.979 0.678711H171.988V1.74187H191.979V0.678711Z" fill="#3BC4C4"/>
<path d="M233.965 17.3755H200.449V18.4386H233.965V17.3755Z" fill="#9FFFFF"/>
<path d="M234 13.2449H200.484V14.308H234V13.2449Z" fill="#9FFFFF"/>
<path d="M233.965 17.3755H200.449V18.4386H233.965V17.3755Z" fill="#3BC4C4"/>
<path d="M234 13.2449H200.484V14.308H234V13.2449Z" fill="#3BC4C4"/>
<path d="M233.965 38.9351H200.449V39.9982H233.965V38.9351Z" fill="#9FFFFF"/>
<path d="M234 34.8044H200.484V35.8676H234V34.8044Z" fill="#9FFFFF"/>
<path d="M233.965 38.9351H200.449V39.9982H233.965V38.9351Z" fill="#3BC4C4"/>
<path d="M234 34.8044H200.484V35.8676H234V34.8044Z" fill="#3BC4C4"/>
<path d="M10.1436 52.8955H0L28.5659 0.678589H38.7095L10.1436 52.8955Z" fill="url(#paint0_linear_4173_2379)"/>
<path d="M100.983 32.3643V40.4338H63.5107L68.5825 31.1965L85.3317 0.678589H95.4753L78.7261 31.1965L78.0813 32.3643H100.983Z" fill="url(#paint1_linear_4173_2379)"/>
<path d="M58.5787 0.678589H49.1846V52.8955H58.5787V0.678589Z" fill="url(#paint2_linear_4173_2379)"/>
<path d="M151.753 0.678589H142.358V52.8955H151.753V0.678589Z" fill="url(#paint3_linear_4173_2379)"/>
<path d="M171.988 0.678589H162.594V52.8955H171.988V0.678589Z" fill="url(#paint4_linear_4173_2379)"/>
<path d="M117.261 0.678589H107.867V52.8955H117.261V0.678589Z" fill="url(#paint5_linear_4173_2379)"/>
<path d="M234 0.591309H200.449V10.0029H234V0.591309Z" fill="url(#paint6_linear_4173_2379)"/>
<path d="M234 43.4664H200.449V52.878H234V43.4664Z" fill="url(#paint7_linear_4173_2379)"/>
<path d="M217.791 21.9243H200.449V31.3359H217.791V21.9243Z" fill="url(#paint8_linear_4173_2379)"/>
<defs>
<linearGradient id="paint0_linear_4173_2379" x1="19.3565" y1="52.8903" x2="19.3565" y2="0.675103" gradientUnits="userSpaceOnUse">
<stop stop-color="#3881A2"/>
<stop offset="1" stop-color="#50ACB7"/>
</linearGradient>
<linearGradient id="paint1_linear_4173_2379" x1="82.2503" y1="40.4356" x2="82.2503" y2="0.676847" gradientUnits="userSpaceOnUse">
<stop stop-color="#3881A2"/>
<stop offset="1" stop-color="#50ACB7"/>
</linearGradient>
<linearGradient id="paint2_linear_4173_2379" x1="53.8869" y1="52.8903" x2="53.8869" y2="0.675103" gradientUnits="userSpaceOnUse">
<stop stop-color="#3881A2"/>
<stop offset="1" stop-color="#50ACB7"/>
</linearGradient>
<linearGradient id="paint3_linear_4173_2379" x1="147.049" y1="52.8903" x2="147.049" y2="0.675103" gradientUnits="userSpaceOnUse">
<stop stop-color="#3881A2"/>
<stop offset="1" stop-color="#50ACB7"/>
</linearGradient>
<linearGradient id="paint4_linear_4173_2379" x1="167.293" y1="52.8903" x2="167.293" y2="0.675103" gradientUnits="userSpaceOnUse">
<stop stop-color="#3881A2"/>
<stop offset="1" stop-color="#50ACB7"/>
</linearGradient>
<linearGradient id="paint5_linear_4173_2379" x1="112.559" y1="52.8903" x2="112.559" y2="0.675103" gradientUnits="userSpaceOnUse">
<stop stop-color="#3881A2"/>
<stop offset="1" stop-color="#50ACB7"/>
</linearGradient>
<linearGradient id="paint6_linear_4173_2379" x1="233.998" y1="5.30059" x2="200.453" y2="5.30059" gradientUnits="userSpaceOnUse">
<stop stop-color="#3881A2"/>
<stop offset="1" stop-color="#50ACB7"/>
</linearGradient>
<linearGradient id="paint7_linear_4173_2379" x1="233.998" y1="48.1809" x2="200.453" y2="48.1809" gradientUnits="userSpaceOnUse">
<stop stop-color="#3881A2"/>
<stop offset="1" stop-color="#50ACB7"/>
</linearGradient>
<linearGradient id="paint8_linear_4173_2379" x1="217.787" y1="26.6249" x2="200.453" y2="26.6249" gradientUnits="userSpaceOnUse">
<stop stop-color="#3881A2"/>
<stop offset="1" stop-color="#50ACB7"/>
</linearGradient>
</defs>
</svg>
