<svg width="444" height="53" viewBox="0 0 444 53" fill="none" xmlns="http://www.w3.org/2000/svg">
<rect y="6.77393" width="40" height="39.4521" rx="19.726" fill="url(#paint0_linear_4009_1519)"/>
<path d="M7.73256 22.1307H7.56836V30.8833H7.73256V22.1307Z" fill="white"/>
<path d="M7.04066 22.1307H6.87646V30.8833H7.04066V22.1307Z" fill="white"/>
<path d="M6.34633 22.1311H6.18213V30.8837H6.34633V22.1311Z" fill="white"/>
<path d="M7.73256 22.1307H7.56836V30.8833H7.73256V22.1307Z" fill="white"/>
<path d="M7.04066 22.1307H6.87646V30.8833H7.04066V22.1307Z" fill="white"/>
<path d="M6.34633 22.1311H6.18213V30.8837H6.34633V22.1311Z" fill="white"/>
<path d="M16.5109 22.1307H16.3467V30.8833H16.5109V22.1307Z" fill="white"/>
<path d="M15.82 22.1307H15.6558V30.8833H15.82V22.1307Z" fill="white"/>
<path d="M15.1251 22.1311H14.9609V30.8837H15.1251V22.1311Z" fill="white"/>
<path d="M16.5109 22.1307H16.3467V30.8833H16.5109V22.1307Z" fill="white"/>
<path d="M15.82 22.1307H15.6558V30.8833H15.82V22.1307Z" fill="white"/>
<path d="M15.1251 22.1311H14.9609V30.8837H15.1251V22.1311Z" fill="white"/>
<path d="M22.6698 30.6906H19.865V30.8682H22.6698V30.6906Z" fill="white"/>
<path d="M22.6666 29.984H19.8618V30.1616H22.6666V29.984Z" fill="white"/>
<path d="M22.6683 29.2733H19.8635V29.4509H22.6683V29.2733Z" fill="white"/>
<path d="M22.6698 30.6906H19.865V30.8682H22.6698V30.6906Z" fill="white"/>
<path d="M22.6666 29.984H19.8618V30.1616H22.6666V29.984Z" fill="white"/>
<path d="M22.6683 29.2733H19.8635V29.4509H22.6683V29.2733Z" fill="white"/>
<path d="M31.4038 27.1294H28.3164V27.307H31.4038V27.1294Z" fill="white"/>
<path d="M31.4019 26.4193H28.3145V26.5969H31.4019V26.4193Z" fill="white"/>
<path d="M31.4043 25.7122H28.3169V25.8898H31.4043V25.7122Z" fill="white"/>
<path d="M31.4038 27.1294H28.3164V27.307H31.4038V27.1294Z" fill="white"/>
<path d="M31.4019 26.4193H28.3145V26.5969H31.4019V26.4193Z" fill="white"/>
<path d="M31.4043 25.7122H28.3169V25.8898H31.4043V25.7122Z" fill="white"/>
<path d="M31.4038 23.5476H28.3164V23.7252H31.4038V23.5476Z" fill="white"/>
<path d="M31.4019 22.8412H28.3145V23.0188H31.4019V22.8412Z" fill="white"/>
<path d="M31.4038 22.1307H28.3164V22.3084H31.4038V22.1307Z" fill="white"/>
<path d="M31.4038 23.5476H28.3164V23.7252H31.4038V23.5476Z" fill="white"/>
<path d="M31.4019 22.8412H28.3145V23.0188H31.4019V22.8412Z" fill="white"/>
<path d="M31.4038 22.1307H28.3164V22.3084H31.4038V22.1307Z" fill="white"/>
<path d="M37.8896 24.9301H32.7134V25.1077H37.8896V24.9301Z" fill="white"/>
<path d="M37.8945 24.2374H32.7183V24.4151H37.8945V24.2374Z" fill="white"/>
<path d="M37.8896 24.9301H32.7134V25.1077H37.8896V24.9301Z" fill="white"/>
<path d="M37.8945 24.2374H32.7183V24.4151H37.8945V24.2374Z" fill="white"/>
<path d="M37.8896 28.5438H32.7134V28.7214H37.8896V28.5438Z" fill="white"/>
<path d="M37.8945 27.8512H32.7183V28.0288H37.8945V27.8512Z" fill="white"/>
<path d="M37.8896 28.5438H32.7134V28.7214H37.8896V28.5438Z" fill="white"/>
<path d="M37.8945 27.8512H32.7183V28.0288H37.8945V27.8512Z" fill="white"/>
<path d="M3.32148 30.8833H1.75488L6.16665 22.1307H7.73325L3.32148 30.8833Z" fill="white"/>
<path d="M17.3502 27.4419V28.7945H11.563L12.3463 27.2461L14.9331 22.1307H16.4996L13.9129 27.2461L13.8133 27.4419H17.3502Z" fill="white"/>
<path d="M10.8017 22.1307H9.35083V30.8833H10.8017V22.1307Z" fill="white"/>
<path d="M25.1916 22.1307H23.7407V30.8833H25.1916V22.1307Z" fill="white"/>
<path d="M28.3173 22.1307H26.8665V30.8833H28.3173V22.1307Z" fill="white"/>
<path d="M19.8654 22.1307H18.4146V30.8833H19.8654V22.1307Z" fill="white"/>
<path d="M37.895 22.1165H32.7134V23.694H37.895V22.1165Z" fill="white"/>
<path d="M37.895 29.303H32.7134V30.8805H37.895V29.303Z" fill="white"/>
<path d="M35.3917 25.6919H32.7134V27.2695H35.3917V25.6919Z" fill="white"/>
<path d="M58.4023 8.80859H80.8828V17.793H70.5508V20.3516H80.8438V28.0078H70.5508V30.957H81.5664V40H58.4023V8.80859ZM102.777 28.2812C102.777 26.1589 102.465 24.6354 101.84 23.7109C101.228 22.7865 100.395 22.3242 99.3398 22.3242C98.7539 22.3242 98.3438 22.5716 98.1094 23.0664C97.888 23.5612 97.7773 24.1536 97.7773 24.8438V40H86.1758V15.7227H92.582L95.375 19.5117C96.4557 18.0404 97.9141 16.888 99.75 16.0547C101.586 15.2214 103.487 14.8047 105.453 14.8047C107.094 14.8047 108.598 15.1497 109.965 15.8398C111.332 16.5169 112.419 17.5 113.227 18.7891C114.047 20.0781 114.457 21.6276 114.457 23.4375V40H102.777V28.2812ZM137.699 36.9922C136.566 38.2292 135.264 39.1602 133.793 39.7852C132.335 40.4102 130.824 40.7227 129.262 40.7227C127.296 40.7227 125.46 40.2865 123.754 39.4141C122.061 38.5417 120.694 37.2266 119.652 35.4688C118.624 33.6979 118.109 31.4909 118.109 28.8477C118.109 26.7122 118.461 24.7852 119.164 23.0664C119.88 21.3346 120.85 19.8568 122.074 18.6328C123.311 17.3958 124.717 16.4518 126.293 15.8008C127.882 15.1367 129.542 14.8047 131.273 14.8047C132.667 14.8047 134.027 15.1497 135.355 15.8398C136.684 16.5169 137.745 17.474 138.539 18.7109L141.352 15.7227H147.738V40C147.738 42.0833 147.367 43.8216 146.625 45.2148C145.883 46.6081 144.887 47.7148 143.637 48.5352C142.387 49.3555 140.987 49.9414 139.438 50.293C137.888 50.6576 136.299 50.8398 134.672 50.8398C133.474 50.8398 132.296 50.7617 131.137 50.6055C129.978 50.4622 128.884 50.2604 127.855 50V43.0859C128.52 43.1641 129.242 43.2747 130.023 43.418C130.818 43.5612 131.605 43.6328 132.387 43.6328C133.324 43.6328 134.197 43.457 135.004 43.1055C135.811 42.7669 136.462 42.1159 136.957 41.1523C137.452 40.2018 137.699 38.8151 137.699 36.9922ZM131.547 32.5977C132.367 32.5977 133.135 32.4479 133.852 32.1484C134.568 31.849 135.212 31.4974 135.785 31.0938C136.358 30.6901 136.84 30.3385 137.23 30.0391V23.0859C136.775 22.8125 136.267 22.6758 135.707 22.6758C134.991 22.6758 134.275 22.8971 133.559 23.3398C132.842 23.7695 132.185 24.349 131.586 25.0781C131 25.7943 130.525 26.5755 130.16 27.4219C129.809 28.2682 129.633 29.1016 129.633 29.9219C129.633 30.5339 129.776 31.1328 130.062 31.7188C130.349 32.3047 130.844 32.5977 131.547 32.5977ZM163.383 40H152.309V7.12891H163.383V40ZM174.359 4.47266C176.208 4.47266 177.569 4.88932 178.441 5.72266C179.327 6.55599 179.77 7.51302 179.77 8.59375C179.77 9.40104 179.516 10.2018 179.008 10.9961C178.513 11.7773 177.784 12.4284 176.82 12.9492C175.857 13.457 174.678 13.7109 173.285 13.7109C171.28 13.7109 169.867 13.3073 169.047 12.5C168.24 11.6797 167.836 10.7552 167.836 9.72656C167.836 8.89323 168.077 8.07943 168.559 7.28516C169.04 6.47786 169.763 5.80729 170.727 5.27344C171.703 4.73958 172.914 4.47266 174.359 4.47266ZM179.438 40H168.129V15.7227H179.438V40ZM183.773 31.7188C184.021 31.7318 184.49 31.862 185.18 32.1094C185.87 32.3568 186.645 32.6042 187.504 32.8516C188.363 33.0859 189.164 33.2031 189.906 33.2031C190.284 33.2031 190.59 33.138 190.824 33.0078C191.059 32.8646 191.176 32.6107 191.176 32.2461C191.176 31.7643 190.922 31.3607 190.414 31.0352C189.919 30.7096 189.301 30.3711 188.559 30.0195C187.816 29.6549 187.068 29.1927 186.312 28.6328C185.57 28.0729 184.945 27.3242 184.438 26.3867C183.943 25.4362 183.695 24.2122 183.695 22.7148C183.695 21.2565 184.001 20.026 184.613 19.0234C185.238 18.0078 186.072 17.194 187.113 16.582C188.168 15.957 189.346 15.5078 190.648 15.2344C191.964 14.9479 193.311 14.8047 194.691 14.8047C195.876 14.8047 196.996 14.8633 198.051 14.9805C199.105 15.0977 199.997 15.2279 200.727 15.3711C201.469 15.5013 201.938 15.5924 202.133 15.6445V23.0078C202.133 23.0078 201.898 22.9557 201.43 22.8516C200.974 22.7474 200.401 22.6302 199.711 22.5C199.021 22.3698 198.324 22.2526 197.621 22.1484C196.918 22.0443 196.319 21.9922 195.824 21.9922C195.447 21.9922 195.154 22.0768 194.945 22.2461C194.75 22.4154 194.652 22.6107 194.652 22.832C194.652 23.0404 194.763 23.2422 194.984 23.4375C195.206 23.6328 195.655 23.8672 196.332 24.1406C197.361 24.5573 198.318 24.9805 199.203 25.4102C200.089 25.8268 200.863 26.3281 201.527 26.9141C202.204 27.5 202.725 28.2487 203.09 29.1602C203.467 30.0716 203.656 31.2305 203.656 32.6367C203.656 35.319 202.706 37.3372 200.805 38.6914C198.904 40.0456 196.378 40.7227 193.227 40.7227C190.727 40.7227 188.793 40.5729 187.426 40.2734C186.059 39.987 185.108 39.7005 184.574 39.4141C184.04 39.1146 183.773 38.9648 183.773 38.9648V31.7188ZM207.66 40V7.12891H219.262V18.3203C220.108 17.2005 221.208 16.3346 222.562 15.7227C223.917 15.1107 225.336 14.8047 226.82 14.8047C228.565 14.8047 230.147 15.2148 231.566 16.0352C232.986 16.8424 234.112 18.0143 234.945 19.5508C235.792 21.0742 236.215 22.9036 236.215 25.0391V40H224.535V29.4727C224.535 27.3112 224.19 25.5729 223.5 24.2578C222.81 22.9427 222.022 22.2852 221.137 22.2852C220.46 22.2852 219.978 22.5326 219.691 23.0273C219.405 23.5091 219.262 24.1146 219.262 24.8438V40H207.66ZM250.375 29.6484C250.453 29.6615 250.818 29.7786 251.469 30C252.133 30.2083 252.934 30.4492 253.871 30.7227C254.809 30.9831 255.746 31.2174 256.684 31.4258C257.634 31.6211 258.441 31.7188 259.105 31.7188C259.678 31.7188 260.147 31.6341 260.512 31.4648C260.876 31.2956 261.059 30.9831 261.059 30.5273C261.059 30.0326 260.798 29.5833 260.277 29.1797C259.757 28.776 259.086 28.3594 258.266 27.9297C257.458 27.5 256.592 27.0117 255.668 26.4648C254.757 25.918 253.891 25.2604 253.07 24.4922C252.263 23.724 251.599 22.806 251.078 21.7383C250.557 20.6576 250.297 19.3685 250.297 17.8711C250.297 16.0352 250.681 14.4857 251.449 13.2227C252.217 11.9466 253.246 10.9245 254.535 10.1562C255.837 9.375 257.296 8.80859 258.91 8.45703C260.538 8.10547 262.204 7.92969 263.91 7.92969C265.355 7.92969 266.723 8.00781 268.012 8.16406C269.301 8.32031 270.388 8.48958 271.273 8.67188C272.172 8.85417 272.738 8.97786 272.973 9.04297V18.0078C272.973 18.0078 272.699 17.9492 272.152 17.832C271.618 17.7148 270.941 17.5846 270.121 17.4414C269.314 17.2982 268.474 17.168 267.602 17.0508C266.742 16.9336 265.987 16.875 265.336 16.875C264.737 16.875 264.288 16.9792 263.988 17.1875C263.689 17.3958 263.539 17.6432 263.539 17.9297C263.539 18.1641 263.669 18.4245 263.93 18.7109C264.19 18.9844 264.503 19.1992 264.867 19.3555C266.234 19.9544 267.523 20.5664 268.734 21.1914C269.945 21.8164 271.013 22.5391 271.938 23.3594C272.862 24.1797 273.585 25.1823 274.105 26.3672C274.639 27.5391 274.906 28.9779 274.906 30.6836C274.906 32.7148 274.392 34.4857 273.363 35.9961C272.348 37.5065 270.876 38.6784 268.949 39.5117C267.035 40.3451 264.724 40.7617 262.016 40.7617C259.685 40.7617 257.764 40.651 256.254 40.4297C254.743 40.2083 253.559 39.9609 252.699 39.6875C251.84 39.401 251.234 39.1471 250.883 38.9258C250.544 38.7044 250.375 38.5938 250.375 38.5938V29.6484ZM298.734 39.3555C297.641 39.7721 296.495 40.1042 295.297 40.3516C294.112 40.599 292.888 40.7227 291.625 40.7227C289.906 40.7227 288.24 40.4622 286.625 39.9414C285.01 39.4206 283.565 38.6523 282.289 37.6367C281.013 36.6081 279.997 35.3385 279.242 33.8281C278.487 32.3177 278.109 30.5729 278.109 28.5938C278.109 25.8333 278.747 23.418 280.023 21.3477C281.312 19.2643 283.096 17.6497 285.375 16.5039C287.667 15.3451 290.31 14.7656 293.305 14.7656C293.839 14.7656 294.607 14.8242 295.609 14.9414C296.612 15.0586 297.523 15.2799 298.344 15.6055V23.125C298.148 22.9557 297.921 22.8385 297.66 22.7734C297.413 22.7083 297.159 22.6758 296.898 22.6758C296.234 22.6758 295.538 22.8776 294.809 23.2812C294.092 23.6719 293.428 24.2122 292.816 24.9023C292.204 25.5924 291.703 26.3737 291.312 27.2461C290.935 28.1185 290.746 29.0234 290.746 29.9609C290.746 30.7292 290.863 31.3021 291.098 31.6797C291.332 32.0573 291.625 32.3047 291.977 32.4219C292.341 32.5391 292.693 32.5977 293.031 32.5977C293.305 32.5977 293.656 32.5521 294.086 32.4609C294.529 32.3568 295.115 32.1094 295.844 31.7188C296.586 31.3151 297.549 30.6771 298.734 29.8047V39.3555ZM316.273 40.7227C314.529 40.7227 312.829 40.4232 311.176 39.8242C309.522 39.2122 308.031 38.3398 306.703 37.207C305.388 36.0612 304.34 34.694 303.559 33.1055C302.79 31.5039 302.406 29.7201 302.406 27.7539C302.406 25.8138 302.771 24.0495 303.5 22.4609C304.229 20.8724 305.232 19.5117 306.508 18.3789C307.784 17.2331 309.255 16.3542 310.922 15.7422C312.602 15.1172 314.385 14.8047 316.273 14.8047C318.93 14.8047 321.332 15.332 323.48 16.3867C325.629 17.4284 327.328 18.9258 328.578 20.8789C329.841 22.819 330.473 25.1367 330.473 27.832C330.473 29.8112 330.089 31.5951 329.32 33.1836C328.552 34.7721 327.504 36.1263 326.176 37.2461C324.848 38.3659 323.331 39.2253 321.625 39.8242C319.932 40.4232 318.148 40.7227 316.273 40.7227ZM315.043 32.832C315.616 32.832 316.254 32.5651 316.957 32.0312C317.66 31.4844 318.337 30.7943 318.988 29.9609C319.639 29.1146 320.173 28.2292 320.59 27.3047C321.02 26.3802 321.234 25.5339 321.234 24.7656C321.234 24.1797 321.078 23.6458 320.766 23.1641C320.466 22.6823 319.945 22.4414 319.203 22.4414C318.526 22.4414 317.81 22.7018 317.055 23.2227C316.299 23.7305 315.59 24.401 314.926 25.2344C314.275 26.0547 313.741 26.9336 313.324 27.8711C312.921 28.7956 312.719 29.681 312.719 30.5273C312.719 31.1003 312.888 31.6276 313.227 32.1094C313.565 32.5911 314.171 32.832 315.043 32.832ZM351.703 24.8828C350.896 24.8828 350.056 25.0911 349.184 25.5078C348.311 25.9245 347.576 26.4258 346.977 27.0117C346.391 27.5977 346.098 28.151 346.098 28.6719V40H334.34V15.7227H346.098V18.3203C346.762 17.3177 347.582 16.5169 348.559 15.918C349.548 15.319 350.596 14.9609 351.703 14.8438V24.8828ZM361.391 4.47266C363.24 4.47266 364.6 4.88932 365.473 5.72266C366.358 6.55599 366.801 7.51302 366.801 8.59375C366.801 9.40104 366.547 10.2018 366.039 10.9961C365.544 11.7773 364.815 12.4284 363.852 12.9492C362.888 13.457 361.71 13.7109 360.316 13.7109C358.311 13.7109 356.898 13.3073 356.078 12.5C355.271 11.6797 354.867 10.7552 354.867 9.72656C354.867 8.89323 355.108 8.07943 355.59 7.28516C356.072 6.47786 356.794 5.80729 357.758 5.27344C358.734 4.73958 359.945 4.47266 361.391 4.47266ZM366.469 40H355.16V15.7227H366.469V40ZM387.816 28.2812C387.816 26.1589 387.504 24.6354 386.879 23.7109C386.267 22.7865 385.434 22.3242 384.379 22.3242C383.793 22.3242 383.383 22.5716 383.148 23.0664C382.927 23.5612 382.816 24.1536 382.816 24.8438V40H371.215V15.7227H377.621L380.414 19.5117C381.495 18.0404 382.953 16.888 384.789 16.0547C386.625 15.2214 388.526 14.8047 390.492 14.8047C392.133 14.8047 393.637 15.1497 395.004 15.8398C396.371 16.5169 397.458 17.5 398.266 18.7891C399.086 20.0781 399.496 21.6276 399.496 23.4375V40H387.816V28.2812ZM422.738 36.9922C421.605 38.2292 420.303 39.1602 418.832 39.7852C417.374 40.4102 415.863 40.7227 414.301 40.7227C412.335 40.7227 410.499 40.2865 408.793 39.4141C407.1 38.5417 405.733 37.2266 404.691 35.4688C403.663 33.6979 403.148 31.4909 403.148 28.8477C403.148 26.7122 403.5 24.7852 404.203 23.0664C404.919 21.3346 405.889 19.8568 407.113 18.6328C408.35 17.3958 409.757 16.4518 411.332 15.8008C412.921 15.1367 414.581 14.8047 416.312 14.8047C417.706 14.8047 419.066 15.1497 420.395 15.8398C421.723 16.5169 422.784 17.474 423.578 18.7109L426.391 15.7227H432.777V40C432.777 42.0833 432.406 43.8216 431.664 45.2148C430.922 46.6081 429.926 47.7148 428.676 48.5352C427.426 49.3555 426.026 49.9414 424.477 50.293C422.927 50.6576 421.339 50.8398 419.711 50.8398C418.513 50.8398 417.335 50.7617 416.176 50.6055C415.017 50.4622 413.923 50.2604 412.895 50V43.0859C413.559 43.1641 414.281 43.2747 415.062 43.418C415.857 43.5612 416.645 43.6328 417.426 43.6328C418.363 43.6328 419.236 43.457 420.043 43.1055C420.85 42.7669 421.501 42.1159 421.996 41.1523C422.491 40.2018 422.738 38.8151 422.738 36.9922ZM416.586 32.5977C417.406 32.5977 418.174 32.4479 418.891 32.1484C419.607 31.849 420.251 31.4974 420.824 31.0938C421.397 30.6901 421.879 30.3385 422.27 30.0391V23.0859C421.814 22.8125 421.306 22.6758 420.746 22.6758C420.03 22.6758 419.314 22.8971 418.598 23.3398C417.882 23.7695 417.224 24.349 416.625 25.0781C416.039 25.7943 415.564 26.5755 415.199 27.4219C414.848 28.2682 414.672 29.1016 414.672 29.9219C414.672 30.5339 414.815 31.1328 415.102 31.7188C415.388 32.3047 415.883 32.5977 416.586 32.5977Z" fill="#3881A2"/>
<defs>
<linearGradient id="paint0_linear_4009_1519" x1="20" y1="6.77393" x2="20" y2="46.226" gradientUnits="userSpaceOnUse">
<stop stop-color="#3881A2"/>
<stop offset="1" stop-color="#50ACB7"/>
</linearGradient>
</defs>
</svg>
