<svg width="382" height="53" viewBox="0 0 382 53" fill="none" xmlns="http://www.w3.org/2000/svg">
<rect y="6.77393" width="40" height="39.4521" rx="19.726" fill="url(#paint0_linear_4009_1445)"/>
<path d="M7.73256 22.1307H7.56836V30.8833H7.73256V22.1307Z" fill="white"/>
<path d="M7.04066 22.1307H6.87646V30.8833H7.04066V22.1307Z" fill="white"/>
<path d="M6.34633 22.1311H6.18213V30.8837H6.34633V22.1311Z" fill="white"/>
<path d="M7.73256 22.1307H7.56836V30.8833H7.73256V22.1307Z" fill="white"/>
<path d="M7.04066 22.1307H6.87646V30.8833H7.04066V22.1307Z" fill="white"/>
<path d="M6.34633 22.1311H6.18213V30.8837H6.34633V22.1311Z" fill="white"/>
<path d="M16.5109 22.1307H16.3467V30.8833H16.5109V22.1307Z" fill="white"/>
<path d="M15.82 22.1307H15.6558V30.8833H15.82V22.1307Z" fill="white"/>
<path d="M15.1251 22.1311H14.9609V30.8837H15.1251V22.1311Z" fill="white"/>
<path d="M16.5109 22.1307H16.3467V30.8833H16.5109V22.1307Z" fill="white"/>
<path d="M15.82 22.1307H15.6558V30.8833H15.82V22.1307Z" fill="white"/>
<path d="M15.1251 22.1311H14.9609V30.8837H15.1251V22.1311Z" fill="white"/>
<path d="M22.6698 30.6906H19.865V30.8682H22.6698V30.6906Z" fill="white"/>
<path d="M22.6666 29.984H19.8618V30.1616H22.6666V29.984Z" fill="white"/>
<path d="M22.6683 29.2733H19.8635V29.4509H22.6683V29.2733Z" fill="white"/>
<path d="M22.6698 30.6906H19.865V30.8682H22.6698V30.6906Z" fill="white"/>
<path d="M22.6666 29.984H19.8618V30.1616H22.6666V29.984Z" fill="white"/>
<path d="M22.6683 29.2733H19.8635V29.4509H22.6683V29.2733Z" fill="white"/>
<path d="M31.4038 27.1294H28.3164V27.307H31.4038V27.1294Z" fill="white"/>
<path d="M31.4019 26.4193H28.3145V26.5969H31.4019V26.4193Z" fill="white"/>
<path d="M31.4043 25.7122H28.3169V25.8898H31.4043V25.7122Z" fill="white"/>
<path d="M31.4038 27.1294H28.3164V27.307H31.4038V27.1294Z" fill="white"/>
<path d="M31.4019 26.4193H28.3145V26.5969H31.4019V26.4193Z" fill="white"/>
<path d="M31.4043 25.7122H28.3169V25.8898H31.4043V25.7122Z" fill="white"/>
<path d="M31.4038 23.5476H28.3164V23.7252H31.4038V23.5476Z" fill="white"/>
<path d="M31.4019 22.8412H28.3145V23.0188H31.4019V22.8412Z" fill="white"/>
<path d="M31.4038 22.1307H28.3164V22.3084H31.4038V22.1307Z" fill="white"/>
<path d="M31.4038 23.5476H28.3164V23.7252H31.4038V23.5476Z" fill="white"/>
<path d="M31.4019 22.8412H28.3145V23.0188H31.4019V22.8412Z" fill="white"/>
<path d="M31.4038 22.1307H28.3164V22.3084H31.4038V22.1307Z" fill="white"/>
<path d="M37.8896 24.9301H32.7134V25.1077H37.8896V24.9301Z" fill="white"/>
<path d="M37.8945 24.2374H32.7183V24.4151H37.8945V24.2374Z" fill="white"/>
<path d="M37.8896 24.9301H32.7134V25.1077H37.8896V24.9301Z" fill="white"/>
<path d="M37.8945 24.2374H32.7183V24.4151H37.8945V24.2374Z" fill="white"/>
<path d="M37.8896 28.5438H32.7134V28.7214H37.8896V28.5438Z" fill="white"/>
<path d="M37.8945 27.8512H32.7183V28.0288H37.8945V27.8512Z" fill="white"/>
<path d="M37.8896 28.5438H32.7134V28.7214H37.8896V28.5438Z" fill="white"/>
<path d="M37.8945 27.8512H32.7183V28.0288H37.8945V27.8512Z" fill="white"/>
<path d="M3.32148 30.8833H1.75488L6.16665 22.1307H7.73325L3.32148 30.8833Z" fill="white"/>
<path d="M17.3502 27.4419V28.7945H11.563L12.3463 27.2461L14.9331 22.1307H16.4996L13.9129 27.2461L13.8133 27.4419H17.3502Z" fill="white"/>
<path d="M10.8017 22.1307H9.35083V30.8833H10.8017V22.1307Z" fill="white"/>
<path d="M25.1916 22.1307H23.7407V30.8833H25.1916V22.1307Z" fill="white"/>
<path d="M28.3173 22.1307H26.8665V30.8833H28.3173V22.1307Z" fill="white"/>
<path d="M19.8654 22.1307H18.4146V30.8833H19.8654V22.1307Z" fill="white"/>
<path d="M37.895 22.1165H32.7134V23.694H37.895V22.1165Z" fill="white"/>
<path d="M37.895 29.303H32.7134V30.8805H37.895V29.303Z" fill="white"/>
<path d="M35.3917 25.6919H32.7134V27.2695H35.3917V25.6919Z" fill="white"/>
<path d="M58.2 43V15.48H77.52V21.56H67.92V26.44H76.68V31.48H67.92V36.72H77.52V43H58.2ZM80.9297 43V22.96H89.2497V27.32C89.863 25.8267 90.7697 24.68 91.9697 23.88C93.1964 23.08 94.6497 22.68 96.3297 22.68C98.943 22.68 100.97 23.5867 102.41 25.4C103.85 27.1867 104.57 29.72 104.57 33V43H96.1297V32.56C96.1297 30.1867 95.1697 29 93.2497 29C92.103 29 91.1697 29.4267 90.4497 30.28C89.7297 31.1067 89.3697 32.2267 89.3697 33.64V43H80.9297ZM120.272 50.8C119.258 50.8 118.312 50.7333 117.432 50.6C116.552 50.4667 115.858 50.3067 115.352 50.12L115.992 44.32C116.472 44.4267 116.992 44.5067 117.552 44.56C118.112 44.64 118.658 44.68 119.192 44.68C120.978 44.68 122.258 44.3067 123.032 43.56C123.832 42.8133 124.232 41.6667 124.232 40.12V38.24C123.485 39.7067 122.565 40.7867 121.472 41.48C120.378 42.1733 119.005 42.52 117.352 42.52C115.458 42.52 113.752 42.0933 112.232 41.24C110.712 40.36 109.512 39.1733 108.632 37.68C107.778 36.16 107.352 34.4267 107.352 32.48C107.352 30.5333 107.778 28.8267 108.632 27.36C109.512 25.8933 110.712 24.7467 112.232 23.92C113.752 23.0933 115.458 22.68 117.352 22.68C118.685 22.68 119.965 23.04 121.192 23.76C122.418 24.4533 123.352 25.5867 123.992 27.16V22.96H132.392V38.32C132.392 42.5867 131.338 45.7333 129.232 47.76C127.125 49.7867 124.138 50.8 120.272 50.8ZM119.952 36.2C121.098 36.2 122.058 35.84 122.832 35.12C123.605 34.4 123.992 33.5333 123.992 32.52C123.992 31.5067 123.605 30.6667 122.832 30C122.058 29.3333 121.098 29 119.952 29C118.725 29 117.712 29.3467 116.912 30.04C116.138 30.7333 115.752 31.5867 115.752 32.6C115.752 33.5867 116.138 34.44 116.912 35.16C117.712 35.8533 118.725 36.2 119.952 36.2ZM144.278 43.32C142.385 43.32 140.838 43 139.638 42.36C138.465 41.72 137.612 40.8533 137.078 39.76C136.545 38.6667 136.278 37.44 136.278 36.08V15.84L144.718 14.6V34.92C144.718 35.5333 144.918 36.0133 145.318 36.36C145.718 36.68 146.238 36.84 146.878 36.84C147.518 36.84 148.158 36.68 148.798 36.36L149.398 41.92C148.758 42.3733 147.945 42.72 146.958 42.96C145.972 43.2 145.078 43.32 144.278 43.32ZM158.798 43.32C157.012 43.32 155.558 43 154.438 42.36C153.345 41.72 152.545 40.8533 152.038 39.76C151.532 38.6667 151.278 37.44 151.278 36.08V22.96H159.718V34.92C159.718 35.5333 159.892 36.0133 160.238 36.36C160.612 36.68 161.052 36.84 161.558 36.84C162.092 36.84 162.638 36.68 163.198 36.36L163.638 41.92C163.052 42.3733 162.292 42.72 161.358 42.96C160.425 43.2 159.572 43.32 158.798 43.32ZM155.518 20.76C154.292 20.76 153.238 20.3733 152.358 19.6C151.478 18.8 151.038 17.8267 151.038 16.68C151.038 15.88 151.252 15.1867 151.678 14.6C152.105 13.9867 152.665 13.5067 153.358 13.16C154.052 12.8133 154.772 12.64 155.518 12.64C156.345 12.64 157.092 12.8267 157.758 13.2C158.452 13.5733 158.998 14.0667 159.398 14.68C159.825 15.2933 160.038 15.96 160.038 16.68C160.038 17.48 159.812 18.1867 159.358 18.8C158.932 19.4133 158.372 19.8933 157.678 20.24C157.012 20.5867 156.292 20.76 155.518 20.76ZM172.135 43.32C170.935 43.32 169.722 43.2 168.495 42.96C167.269 42.72 166.162 42.3867 165.175 41.96L166.335 36.92C166.949 37.24 167.789 37.52 168.855 37.76C169.922 37.9733 170.869 38.08 171.695 38.08C173.029 38.08 173.695 37.72 173.695 37C173.695 36.6533 173.482 36.4 173.055 36.24C172.655 36.08 172.122 35.9467 171.455 35.84C170.815 35.7067 170.122 35.5467 169.375 35.36C168.629 35.1467 167.922 34.84 167.255 34.44C166.615 34.0133 166.082 33.4133 165.655 32.64C165.255 31.8667 165.055 30.8533 165.055 29.6C165.055 27.4933 165.882 25.8133 167.535 24.56C169.215 23.3067 171.509 22.68 174.415 22.68C175.535 22.68 176.575 22.76 177.535 22.92C178.522 23.08 179.455 23.4133 180.335 23.92L179.495 28.8C178.082 28.2133 176.602 27.92 175.055 27.92C174.069 27.92 173.349 28 172.895 28.16C172.469 28.32 172.255 28.5867 172.255 28.96C172.255 29.2533 172.469 29.48 172.895 29.64C173.322 29.8 173.869 29.96 174.535 30.12C175.229 30.2533 175.949 30.4533 176.695 30.72C177.442 30.96 178.149 31.3067 178.815 31.76C179.509 32.2133 180.069 32.8267 180.495 33.6C180.922 34.3467 181.135 35.32 181.135 36.52C181.135 38.6533 180.349 40.32 178.775 41.52C177.202 42.72 174.989 43.32 172.135 43.32ZM183.938 43V16.64L192.378 15.4V27.08C192.938 25.6933 193.818 24.6133 195.018 23.84C196.218 23.0667 197.658 22.68 199.338 22.68C201.951 22.68 203.978 23.5867 205.418 25.4C206.858 27.1867 207.578 29.72 207.578 33V43H199.138V32.56C199.138 30.1867 198.178 29 196.258 29C195.111 29 194.178 29.4267 193.458 30.28C192.738 31.1067 192.378 32.2267 192.378 33.64V43H183.938ZM227.42 43.64C225.74 43.64 224.034 43.4267 222.3 43C220.567 42.6 219.1 42.0533 217.9 41.36L219.34 34.84C220.887 35.6667 222.327 36.2133 223.66 36.48C225.02 36.72 226.274 36.84 227.42 36.84C228.487 36.84 229.287 36.6667 229.82 36.32C230.38 35.9733 230.66 35.5067 230.66 34.92C230.66 34.3867 230.354 33.9733 229.74 33.68C229.127 33.36 228.327 33.0667 227.34 32.8C226.38 32.5333 225.354 32.2267 224.26 31.88C223.167 31.5067 222.127 31.0267 221.14 30.44C220.18 29.8267 219.394 29.0267 218.78 28.04C218.167 27.0267 217.86 25.76 217.86 24.24C217.86 22.32 218.327 20.6667 219.26 19.28C220.194 17.8667 221.527 16.7867 223.26 16.04C224.994 15.2667 227.034 14.88 229.38 14.88C230.954 14.88 232.487 15.0933 233.98 15.52C235.5 15.92 236.714 16.4667 237.62 17.16L236.26 23.04C234.9 22.48 233.674 22.08 232.58 21.84C231.514 21.5733 230.5 21.44 229.54 21.44C228.42 21.44 227.567 21.6 226.98 21.92C226.394 22.24 226.1 22.6667 226.1 23.2C226.1 23.7067 226.407 24.12 227.02 24.44C227.634 24.76 228.42 25.0667 229.38 25.36C230.34 25.6533 231.367 25.9867 232.46 26.36C233.554 26.7333 234.58 27.2267 235.54 27.84C236.5 28.4533 237.287 29.2533 237.9 30.24C238.514 31.2267 238.82 32.4667 238.82 33.96C238.82 37.0533 237.807 39.44 235.78 41.12C233.78 42.8 230.994 43.64 227.42 43.64ZM251.435 43.32C249.195 43.32 247.261 42.88 245.635 42C244.008 41.12 242.755 39.92 241.875 38.4C240.995 36.8533 240.555 35.08 240.555 33.08C240.555 31.1067 241.008 29.3333 241.915 27.76C242.821 26.1867 244.088 24.9467 245.715 24.04C247.368 23.1333 249.275 22.68 251.435 22.68C254.021 22.68 256.061 23.2133 257.555 24.28L256.675 29.72C256.008 29.4267 255.381 29.2267 254.795 29.12C254.208 28.9867 253.648 28.92 253.115 28.92C251.808 28.92 250.768 29.2933 249.995 30.04C249.248 30.76 248.875 31.7467 248.875 33C248.875 34.2267 249.248 35.2267 249.995 36C250.741 36.7467 251.728 37.12 252.955 37.12C254.021 37.12 255.275 36.8933 256.715 36.44L257.475 42.04C256.595 42.4667 255.675 42.7867 254.715 43C253.781 43.2133 252.688 43.32 251.435 43.32ZM270.825 43.32C268.558 43.32 266.558 42.88 264.825 42C263.091 41.12 261.731 39.9067 260.745 38.36C259.785 36.7867 259.305 34.9867 259.305 32.96C259.305 30.88 259.798 29.08 260.785 27.56C261.798 26.0133 263.171 24.8133 264.905 23.96C266.638 23.1067 268.625 22.68 270.865 22.68C273.158 22.68 275.171 23.12 276.905 24C278.638 24.8533 279.985 26.0533 280.945 27.6C281.905 29.12 282.385 30.9067 282.385 32.96C282.385 35.0133 281.891 36.8267 280.905 38.4C279.945 39.9467 278.598 41.16 276.865 42.04C275.131 42.8933 273.118 43.32 270.825 43.32ZM270.905 37.32C271.998 37.32 272.891 36.92 273.585 36.12C274.305 35.2933 274.665 34.24 274.665 32.96C274.665 31.68 274.318 30.64 273.625 29.84C272.931 29.0133 272.051 28.6 270.985 28.6C269.838 28.6 268.905 29.0133 268.185 29.84C267.491 30.64 267.145 31.68 267.145 32.96C267.145 34.24 267.491 35.2933 268.185 36.12C268.905 36.92 269.811 37.32 270.905 37.32ZM285.383 43V22.96H293.703V27.96C294.236 26.1467 295.063 24.8133 296.183 23.96C297.329 23.1067 298.689 22.68 300.263 22.68L301.263 29.76C300.623 29.68 299.996 29.64 299.383 29.64C295.676 29.64 293.823 31.16 293.823 34.2V43H285.383ZM310.673 43.32C308.887 43.32 307.433 43 306.313 42.36C305.22 41.72 304.42 40.8533 303.913 39.76C303.407 38.6667 303.153 37.44 303.153 36.08V22.96H311.593V34.92C311.593 35.5333 311.767 36.0133 312.113 36.36C312.487 36.68 312.927 36.84 313.433 36.84C313.967 36.84 314.513 36.68 315.073 36.36L315.513 41.92C314.927 42.3733 314.167 42.72 313.233 42.96C312.3 43.2 311.447 43.32 310.673 43.32ZM307.393 20.76C306.167 20.76 305.113 20.3733 304.233 19.6C303.353 18.8 302.913 17.8267 302.913 16.68C302.913 15.88 303.127 15.1867 303.553 14.6C303.98 13.9867 304.54 13.5067 305.233 13.16C305.927 12.8133 306.647 12.64 307.393 12.64C308.22 12.64 308.967 12.8267 309.633 13.2C310.327 13.5733 310.873 14.0667 311.273 14.68C311.7 15.2933 311.913 15.96 311.913 16.68C311.913 17.48 311.687 18.1867 311.233 18.8C310.807 19.4133 310.247 19.8933 309.553 20.24C308.887 20.5867 308.167 20.76 307.393 20.76ZM317.57 43V22.96H325.89V27.32C326.504 25.8267 327.41 24.68 328.61 23.88C329.837 23.08 331.29 22.68 332.97 22.68C335.584 22.68 337.61 23.5867 339.05 25.4C340.49 27.1867 341.21 29.72 341.21 33V43H332.77V32.56C332.77 30.1867 331.81 29 329.89 29C328.744 29 327.81 29.4267 327.09 30.28C326.37 31.1067 326.01 32.2267 326.01 33.64V43H317.57ZM356.912 50.8C355.899 50.8 354.952 50.7333 354.072 50.6C353.192 50.4667 352.499 50.3067 351.992 50.12L352.632 44.32C353.112 44.4267 353.632 44.5067 354.192 44.56C354.752 44.64 355.299 44.68 355.832 44.68C357.619 44.68 358.899 44.3067 359.672 43.56C360.472 42.8133 360.872 41.6667 360.872 40.12V38.24C360.126 39.7067 359.206 40.7867 358.112 41.48C357.019 42.1733 355.646 42.52 353.992 42.52C352.099 42.52 350.392 42.0933 348.872 41.24C347.352 40.36 346.152 39.1733 345.272 37.68C344.419 36.16 343.992 34.4267 343.992 32.48C343.992 30.5333 344.419 28.8267 345.272 27.36C346.152 25.8933 347.352 24.7467 348.872 23.92C350.392 23.0933 352.099 22.68 353.992 22.68C355.326 22.68 356.606 23.04 357.832 23.76C359.059 24.4533 359.992 25.5867 360.632 27.16V22.96H369.032V38.32C369.032 42.5867 367.979 45.7333 365.872 47.76C363.766 49.7867 360.779 50.8 356.912 50.8ZM356.592 36.2C357.739 36.2 358.699 35.84 359.472 35.12C360.246 34.4 360.632 33.5333 360.632 32.52C360.632 31.5067 360.246 30.6667 359.472 30C358.699 29.3333 357.739 29 356.592 29C355.366 29 354.352 29.3467 353.552 30.04C352.779 30.7333 352.392 31.5867 352.392 32.6C352.392 33.5867 352.779 34.44 353.552 35.16C354.352 35.8533 355.366 36.2 356.592 36.2Z" fill="#3881A2"/>
<defs>
<linearGradient id="paint0_linear_4009_1445" x1="20" y1="6.77393" x2="20" y2="46.226" gradientUnits="userSpaceOnUse">
<stop stop-color="#3881A2"/>
<stop offset="1" stop-color="#50ACB7"/>
</linearGradient>
</defs>
</svg>
