<svg width="444" height="53" viewBox="0 0 444 53" fill="none" xmlns="http://www.w3.org/2000/svg">
<rect y="6.77393" width="40" height="39.4521" rx="19.726" fill="url(#paint0_linear_4009_1593)"/>
<path d="M7.73256 22.1307H7.56836V30.8833H7.73256V22.1307Z" fill="white"/>
<path d="M7.04066 22.1307H6.87646V30.8833H7.04066V22.1307Z" fill="white"/>
<path d="M6.34633 22.1311H6.18213V30.8837H6.34633V22.1311Z" fill="white"/>
<path d="M7.73256 22.1307H7.56836V30.8833H7.73256V22.1307Z" fill="white"/>
<path d="M7.04066 22.1307H6.87646V30.8833H7.04066V22.1307Z" fill="white"/>
<path d="M6.34633 22.1311H6.18213V30.8837H6.34633V22.1311Z" fill="white"/>
<path d="M16.5109 22.1307H16.3467V30.8833H16.5109V22.1307Z" fill="white"/>
<path d="M15.82 22.1307H15.6558V30.8833H15.82V22.1307Z" fill="white"/>
<path d="M15.1251 22.1311H14.9609V30.8837H15.1251V22.1311Z" fill="white"/>
<path d="M16.5109 22.1307H16.3467V30.8833H16.5109V22.1307Z" fill="white"/>
<path d="M15.82 22.1307H15.6558V30.8833H15.82V22.1307Z" fill="white"/>
<path d="M15.1251 22.1311H14.9609V30.8837H15.1251V22.1311Z" fill="white"/>
<path d="M22.6698 30.6906H19.865V30.8682H22.6698V30.6906Z" fill="white"/>
<path d="M22.6666 29.984H19.8618V30.1616H22.6666V29.984Z" fill="white"/>
<path d="M22.6683 29.2733H19.8635V29.4509H22.6683V29.2733Z" fill="white"/>
<path d="M22.6698 30.6906H19.865V30.8682H22.6698V30.6906Z" fill="white"/>
<path d="M22.6666 29.984H19.8618V30.1616H22.6666V29.984Z" fill="white"/>
<path d="M22.6683 29.2733H19.8635V29.4509H22.6683V29.2733Z" fill="white"/>
<path d="M31.4038 27.1294H28.3164V27.307H31.4038V27.1294Z" fill="white"/>
<path d="M31.4019 26.4193H28.3145V26.5969H31.4019V26.4193Z" fill="white"/>
<path d="M31.4043 25.7122H28.3169V25.8898H31.4043V25.7122Z" fill="white"/>
<path d="M31.4038 27.1294H28.3164V27.307H31.4038V27.1294Z" fill="white"/>
<path d="M31.4019 26.4193H28.3145V26.5969H31.4019V26.4193Z" fill="white"/>
<path d="M31.4043 25.7122H28.3169V25.8898H31.4043V25.7122Z" fill="white"/>
<path d="M31.4038 23.5476H28.3164V23.7252H31.4038V23.5476Z" fill="white"/>
<path d="M31.4019 22.8412H28.3145V23.0188H31.4019V22.8412Z" fill="white"/>
<path d="M31.4038 22.1307H28.3164V22.3084H31.4038V22.1307Z" fill="white"/>
<path d="M31.4038 23.5476H28.3164V23.7252H31.4038V23.5476Z" fill="white"/>
<path d="M31.4019 22.8412H28.3145V23.0188H31.4019V22.8412Z" fill="white"/>
<path d="M31.4038 22.1307H28.3164V22.3084H31.4038V22.1307Z" fill="white"/>
<path d="M37.8896 24.9301H32.7134V25.1077H37.8896V24.9301Z" fill="white"/>
<path d="M37.8945 24.2374H32.7183V24.4151H37.8945V24.2374Z" fill="white"/>
<path d="M37.8896 24.9301H32.7134V25.1077H37.8896V24.9301Z" fill="white"/>
<path d="M37.8945 24.2374H32.7183V24.4151H37.8945V24.2374Z" fill="white"/>
<path d="M37.8896 28.5438H32.7134V28.7214H37.8896V28.5438Z" fill="white"/>
<path d="M37.8945 27.8512H32.7183V28.0288H37.8945V27.8512Z" fill="white"/>
<path d="M37.8896 28.5438H32.7134V28.7214H37.8896V28.5438Z" fill="white"/>
<path d="M37.8945 27.8512H32.7183V28.0288H37.8945V27.8512Z" fill="white"/>
<path d="M3.32148 30.8833H1.75488L6.16665 22.1307H7.73325L3.32148 30.8833Z" fill="white"/>
<path d="M17.3502 27.4419V28.7945H11.563L12.3463 27.2461L14.9331 22.1307H16.4996L13.9129 27.2461L13.8133 27.4419H17.3502Z" fill="white"/>
<path d="M10.8017 22.1307H9.35083V30.8833H10.8017V22.1307Z" fill="white"/>
<path d="M25.1916 22.1307H23.7407V30.8833H25.1916V22.1307Z" fill="white"/>
<path d="M28.3173 22.1307H26.8665V30.8833H28.3173V22.1307Z" fill="white"/>
<path d="M19.8654 22.1307H18.4146V30.8833H19.8654V22.1307Z" fill="white"/>
<path d="M37.895 22.1165H32.7134V23.694H37.895V22.1165Z" fill="white"/>
<path d="M37.895 29.303H32.7134V30.8805H37.895V29.303Z" fill="white"/>
<path d="M35.3917 25.6919H32.7134V27.2695H35.3917V25.6919Z" fill="white"/>
<path d="M64.4 45.28C62.6133 45.28 61.1333 44.96 59.96 44.32C58.7867 43.6533 57.92 42.8 57.36 41.76C56.8 40.6933 56.52 39.5467 56.52 38.32C56.52 37.2267 56.7333 36.1467 57.16 35.08C57.5867 34.0133 58.2133 33.04 59.04 32.16C59.8933 31.28 60.92 30.5867 62.12 30.08C61.0267 29.3867 60.2 28.56 59.64 27.6C59.1067 26.6133 58.84 25.5867 58.84 24.52C58.84 23.1333 59.2933 21.7867 60.2 20.48C61.1067 19.1733 62.4267 18.0933 64.16 17.24C65.8933 16.3867 67.9733 15.96 70.4 15.96C72.08 15.96 73.4133 16.1733 74.4 16.6C75.4133 17 76.1467 17.5333 76.6 18.2C77.0533 18.84 77.28 19.5333 77.28 20.28C77.28 21.1333 77.0133 21.9867 76.48 22.84C75.9467 23.6667 75.1733 24.3467 74.16 24.88C73.1733 25.4133 71.96 25.68 70.52 25.68C70.9467 24.4267 71.16 23.3867 71.16 22.56C71.16 21.7333 70.9867 21.1333 70.64 20.76C70.2933 20.3867 69.8667 20.2 69.36 20.2C68.8267 20.2 68.2533 20.4 67.64 20.8C67.0533 21.2 66.56 21.76 66.16 22.48C65.76 23.2 65.56 24.04 65.56 25C65.56 25.5067 65.64 26.08 65.8 26.72C65.96 27.3333 66.2133 27.9467 66.56 28.56C67.1467 28.1867 67.68 27.92 68.16 27.76C68.6667 27.5733 69.12 27.48 69.52 27.48C70.3467 27.48 70.9467 27.7733 71.32 28.36C71.6933 28.92 71.88 29.56 71.88 30.28C71.88 31.1333 71.6133 31.9467 71.08 32.72C70.5733 33.4933 69.8133 33.88 68.8 33.88C67.8667 33.88 66.7733 33.44 65.52 32.56C64.0533 33.6 63.32 34.8267 63.32 36.24C63.32 37.3333 63.6533 38.16 64.32 38.72C65.0133 39.28 65.8933 39.56 66.96 39.56C68.32 39.56 69.84 39.0933 71.52 38.16C73.2 37.2 74.6933 35.7733 76 33.88L76.32 34.08C76.2667 35.9467 75.88 37.5867 75.16 39C74.4667 40.3867 73.5467 41.5467 72.4 42.48C71.28 43.4133 70.0267 44.12 68.64 44.6C67.2533 45.0533 65.84 45.28 64.4 45.28ZM82.4659 45.12C81.4793 45.12 80.5859 44.7333 79.7859 43.96C78.9859 43.16 78.5859 42.0533 78.5859 40.64C78.5859 39.9467 78.6793 39.16 78.8659 38.28C79.0526 37.4 79.2526 36.5067 79.4659 35.6C79.7059 34.6933 79.9193 33.84 80.1059 33.04C80.2926 32.24 80.3859 31.5867 80.3859 31.08C80.3859 30.5467 80.2793 30.1333 80.0659 29.84C79.8526 29.52 79.5726 29.36 79.2259 29.36C78.7726 29.36 78.2793 29.6267 77.7459 30.16L77.5059 30C77.4793 29.5733 77.5726 29.0667 77.7859 28.48C77.9993 27.8933 78.3193 27.3333 78.7459 26.8C79.1993 26.24 79.7726 25.7733 80.4659 25.4C81.1593 25.0267 81.9859 24.84 82.9459 24.84C84.3593 24.84 85.3993 25.2533 86.0659 26.08C86.7593 26.88 87.1059 27.8667 87.1059 29.04C87.1059 29.4667 87.0659 29.88 86.9859 30.28C87.5459 29.4533 88.2393 28.6267 89.0659 27.8C89.8926 26.9467 90.7993 26.24 91.7859 25.68C92.7993 25.12 93.8393 24.84 94.9059 24.84C96.1593 24.84 97.0126 25.24 97.4659 26.04C97.9193 26.84 98.1459 27.84 98.1459 29.04C98.1459 30.16 98.0259 31.36 97.7859 32.64C97.5459 33.92 97.3059 35.16 97.0659 36.36C96.8259 37.5333 96.7059 38.52 96.7059 39.32C96.7059 40.3867 97.0126 40.92 97.6259 40.92C97.9459 40.92 98.2259 40.8267 98.4659 40.64C98.7059 40.4267 98.8659 40.2267 98.9459 40.04L99.2259 40.16C99.2259 41.1467 98.9459 42.0133 98.3859 42.76C97.8526 43.5067 97.1726 44.0933 96.3459 44.52C95.5193 44.92 94.6793 45.12 93.8259 45.12C92.7859 45.12 91.8659 44.76 91.0659 44.04C90.2659 43.32 89.8659 42.1467 89.8659 40.52C89.8659 39.56 89.9859 38.52 90.2259 37.4C90.4926 36.28 90.7459 35.2 90.9859 34.16C91.2259 33.12 91.3459 32.2667 91.3459 31.6C91.3459 31.2 91.2659 30.8933 91.1059 30.68C90.9726 30.44 90.7193 30.32 90.3459 30.32C89.7326 30.32 89.0526 30.6 88.3059 31.16C87.5859 31.72 86.9593 32.4667 86.4259 33.4C85.9193 34.3333 85.6659 35.36 85.6659 36.48C85.6659 37.2 85.7459 37.8933 85.9059 38.56C86.0926 39.2267 86.1859 39.9467 86.1859 40.72C86.1859 42.16 85.8126 43.2533 85.0659 44C84.3193 44.7467 83.4526 45.12 82.4659 45.12ZM110.983 53C109.676 53 108.596 52.6133 107.743 51.84C106.889 51.0667 106.463 49.9733 106.463 48.56C106.463 47.04 106.996 45.2533 108.063 43.2C107.876 43.2533 107.689 43.2933 107.503 43.32C107.316 43.3467 107.129 43.36 106.943 43.36C105.396 43.36 104.089 42.6933 103.023 41.36C101.983 40 101.463 38.12 101.463 35.72C101.463 33.56 101.876 31.6533 102.702 30C103.556 28.3467 104.636 27.0533 105.942 26.12C107.249 25.1867 108.609 24.72 110.023 24.72C111.009 24.72 111.903 24.9733 112.703 25.48C113.503 25.96 114.156 26.7467 114.663 27.84C114.689 27.5733 114.703 27.3333 114.703 27.12C114.703 26.9067 114.703 26.7067 114.703 26.52C114.703 26.0667 115.049 25.6933 115.743 25.4C116.436 25.1067 117.209 24.96 118.063 24.96C118.836 24.96 119.556 25.1067 120.223 25.4C120.889 25.6933 121.329 26.1867 121.543 26.88L121.623 27.12C121.383 27.3333 121.169 28.0267 120.983 29.2C120.823 30.3733 120.623 32 120.383 34.08C120.223 35.3867 120.023 36.88 119.783 38.56C119.543 40.2133 119.209 41.8933 118.783 43.6C118.383 45.28 117.849 46.8267 117.183 48.24C116.516 49.68 115.676 50.8267 114.663 51.68C113.649 52.56 112.423 53 110.983 53ZM109.663 38.76C110.436 38.76 111.289 38.1333 112.223 36.88C113.183 35.6 113.943 33.7733 114.503 31.4C114.023 30.36 113.529 29.6267 113.023 29.2C112.543 28.7467 112.049 28.52 111.543 28.52C110.876 28.52 110.249 28.8533 109.663 29.52C109.076 30.1867 108.596 31.04 108.223 32.08C107.876 33.0933 107.703 34.1467 107.703 35.24C107.703 36.36 107.889 37.2267 108.263 37.84C108.636 38.4533 109.103 38.76 109.663 38.76ZM109.183 48.4C110.089 48.4 111.009 47.5067 111.943 45.72C112.903 43.96 113.569 41.4667 113.943 38.24C111.916 40.9867 110.503 43.1067 109.703 44.6C108.929 46.0667 108.543 47.1067 108.543 47.72C108.543 48.1733 108.756 48.4 109.183 48.4ZM127.932 45.16C127.212 45.16 126.505 44.9867 125.812 44.64C125.145 44.2667 124.599 43.68 124.172 42.88C123.745 42.08 123.532 41.0533 123.532 39.8C123.532 38.68 123.679 37.3733 123.972 35.88C124.292 34.36 124.639 32.7867 125.012 31.16C125.412 29.5333 125.759 27.9467 126.052 26.4C126.345 24.8533 126.479 23.48 126.452 22.28C126.452 21.1333 126.319 20.32 126.052 19.84L126.012 19.72C126.305 18.8667 126.825 18.2 127.572 17.72C128.319 17.24 129.105 17 129.932 17C130.865 17 131.692 17.36 132.412 18.08C133.159 18.7733 133.532 19.9467 133.532 21.6C133.532 22.48 133.425 23.5333 133.212 24.76C132.999 25.96 132.745 27.2533 132.452 28.64C132.159 30 131.852 31.3467 131.532 32.68C131.239 34.0133 130.985 35.24 130.772 36.36C130.559 37.48 130.452 38.4 130.452 39.12C130.452 39.8667 130.559 40.3867 130.772 40.68C130.985 40.9467 131.225 41.08 131.492 41.08C131.785 41.08 132.065 40.9733 132.332 40.76C132.599 40.52 132.772 40.3067 132.852 40.12L133.172 40.2C133.145 41.16 132.865 42.0133 132.332 42.76C131.825 43.5067 131.172 44.0933 130.372 44.52C129.599 44.9467 128.785 45.16 127.932 45.16ZM142.806 23.6C141.739 23.6 140.859 23.28 140.166 22.64C139.499 21.9733 139.166 21.1467 139.166 20.16C139.166 19.0933 139.566 18.1733 140.366 17.4C141.166 16.6267 142.139 16.24 143.286 16.24C144.353 16.24 145.219 16.5733 145.886 17.24C146.579 17.9067 146.926 18.7333 146.926 19.72C146.926 20.7867 146.526 21.7067 145.726 22.48C144.926 23.2267 143.953 23.6 142.806 23.6ZM140.006 45.16C138.966 45.16 138.033 44.8 137.206 44.08C136.379 43.3333 135.966 42.1467 135.966 40.52C135.966 39.5867 136.086 38.72 136.326 37.92C136.593 37.0933 136.886 36.2933 137.206 35.52C137.553 34.7467 137.846 34 138.086 33.28C138.353 32.5333 138.486 31.8 138.486 31.08C138.486 30.44 138.379 29.9867 138.166 29.72C137.953 29.4267 137.699 29.28 137.406 29.28C136.953 29.28 136.513 29.5733 136.086 30.16L135.806 30C135.913 28.9333 136.246 28.0267 136.806 27.28C137.393 26.5067 138.099 25.9067 138.926 25.48C139.779 25.0533 140.619 24.84 141.446 24.84C142.459 24.84 143.339 25.1733 144.086 25.84C144.833 26.48 145.206 27.5333 145.206 29C145.206 29.88 145.073 30.8133 144.806 31.8C144.566 32.76 144.273 33.72 143.926 34.68C143.606 35.64 143.313 36.5333 143.046 37.36C142.806 38.1867 142.686 38.8933 142.686 39.48C142.686 39.9867 142.779 40.3467 142.966 40.56C143.179 40.7733 143.406 40.88 143.646 40.88C143.886 40.88 144.113 40.8133 144.326 40.68C144.566 40.52 144.739 40.3467 144.846 40.16L145.126 40.24C145.126 41.2267 144.859 42.0933 144.326 42.84C143.819 43.56 143.179 44.1333 142.406 44.56C141.633 44.96 140.833 45.16 140.006 45.16ZM154.664 45.36C153.011 45.36 151.637 45.1333 150.544 44.68C149.451 44.2267 148.637 43.6533 148.104 42.96C147.571 42.24 147.304 41.52 147.304 40.8C147.304 39.7867 147.757 38.8933 148.664 38.12C149.571 37.32 150.797 36.92 152.344 36.92C152.344 38.28 152.517 39.3733 152.864 40.2C153.211 41 153.651 41.5733 154.184 41.92C154.744 42.2667 155.277 42.44 155.784 42.44C156.397 42.44 156.904 42.2667 157.304 41.92C157.731 41.5467 157.944 41.0933 157.944 40.56C157.944 39.8133 157.557 39.16 156.784 38.6C156.011 38.04 155.011 37.4133 153.784 36.72C153.171 36.3467 152.504 35.92 151.784 35.44C151.064 34.9333 150.451 34.3333 149.944 33.64C149.437 32.92 149.184 32.0667 149.184 31.08C149.184 30.04 149.477 29.12 150.064 28.32C150.677 27.52 151.477 26.8533 152.464 26.32C153.451 25.76 154.517 25.3467 155.664 25.08C156.811 24.7867 157.931 24.64 159.024 24.64C161.077 24.64 162.624 25.0533 163.664 25.88C164.704 26.7067 165.224 27.5867 165.224 28.52C165.224 29.32 164.824 30.04 164.024 30.68C163.224 31.32 161.997 31.64 160.344 31.64C160.371 30.28 160.091 29.2933 159.504 28.68C158.917 28.04 158.291 27.72 157.624 27.72C157.144 27.72 156.744 27.8667 156.424 28.16C156.104 28.4533 155.944 28.88 155.944 29.44C155.944 30.08 156.144 30.64 156.544 31.12C156.971 31.5733 157.491 31.9867 158.104 32.36C158.744 32.7067 159.397 33.04 160.064 33.36C160.971 33.7867 161.824 34.24 162.624 34.72C163.424 35.2 164.077 35.7467 164.584 36.36C165.091 36.9733 165.344 37.72 165.344 38.6C165.344 39.8 164.851 40.92 163.864 41.96C162.904 42.9733 161.611 43.8 159.984 44.44C158.357 45.0533 156.584 45.36 154.664 45.36ZM171.669 45.16C170.522 45.16 169.602 44.7733 168.909 44C168.215 43.2267 167.869 42.1733 167.869 40.84C167.869 40.12 167.962 39.1867 168.149 38.04C168.335 36.8667 168.562 35.5867 168.829 34.2C169.122 32.7867 169.402 31.36 169.669 29.92C169.935 28.4533 170.162 27.04 170.349 25.68C170.535 24.32 170.629 23.12 170.629 22.08C170.629 20.7733 170.455 19.8267 170.109 19.24V19C170.695 18.3333 171.335 17.84 172.029 17.52C172.722 17.2 173.402 17.04 174.069 17.04C175.082 17.04 175.949 17.4 176.669 18.12C177.389 18.84 177.749 19.92 177.749 21.36C177.749 22.1333 177.642 23.08 177.429 24.2C177.215 25.32 176.962 26.4933 176.669 27.72C176.375 28.9467 176.082 30.0933 175.789 31.16C176.295 30.1733 176.962 29.2 177.789 28.24C178.642 27.2533 179.602 26.44 180.669 25.8C181.762 25.16 182.895 24.84 184.069 24.84C185.402 24.84 186.295 25.2533 186.749 26.08C187.229 26.9067 187.469 27.9333 187.469 29.16C187.469 30.28 187.349 31.48 187.109 32.76C186.869 34.0133 186.629 35.2267 186.389 36.4C186.149 37.5467 186.029 38.5067 186.029 39.28C186.029 40.4 186.362 40.96 187.029 40.96C187.322 40.96 187.575 40.88 187.789 40.72C188.029 40.5333 188.202 40.3333 188.309 40.12L188.589 40.32C188.589 41.36 188.335 42.24 187.829 42.96C187.322 43.68 186.669 44.2267 185.869 44.6C185.095 44.9733 184.295 45.16 183.469 45.16C182.375 45.16 181.389 44.8 180.509 44.08C179.629 43.3333 179.189 42.1333 179.189 40.48C179.189 39.5467 179.309 38.5333 179.549 37.44C179.815 36.3467 180.069 35.2933 180.309 34.28C180.549 33.24 180.669 32.3733 180.669 31.68C180.669 30.7733 180.349 30.32 179.709 30.32C179.122 30.32 178.482 30.6133 177.789 31.2C177.095 31.7867 176.482 32.52 175.949 33.4C175.442 34.28 175.109 35.1467 174.949 36C174.895 36.2133 174.869 36.4667 174.869 36.76C174.869 37.4267 174.962 38.0667 175.149 38.68C175.362 39.2933 175.469 40.0133 175.469 40.84C175.469 42.0667 175.149 43.0933 174.509 43.92C173.869 44.7467 172.922 45.16 171.669 45.16ZM204.823 45.24C203.036 45.24 201.556 44.9333 200.383 44.32C199.236 43.7067 198.383 42.92 197.823 41.96C197.263 41 196.983 40.0133 196.983 39C196.983 38.0133 197.223 37.08 197.703 36.2C198.183 35.2933 198.863 34.5467 199.743 33.96C200.65 33.3733 201.716 33.08 202.943 33.08C202.916 33.32 202.903 33.5467 202.903 33.76C202.903 33.9467 202.903 34.04 202.903 34.04C202.903 35.8267 203.076 37.24 203.423 38.28C203.77 39.2933 204.21 40.0267 204.743 40.48C205.276 40.9067 205.823 41.12 206.383 41.12C207.236 41.12 207.996 40.7867 208.663 40.12C209.33 39.4267 209.663 38.6267 209.663 37.72C209.663 36.7067 209.223 35.8133 208.343 35.04C207.49 34.2667 206.396 33.4133 205.063 32.48C204.316 31.92 203.516 31.2933 202.663 30.6C201.836 29.88 201.13 29.04 200.543 28.08C199.956 27.0933 199.663 25.9333 199.663 24.6C199.663 23.2133 199.983 21.9867 200.623 20.92C201.29 19.8533 202.156 18.96 203.223 18.24C204.316 17.4933 205.503 16.9333 206.783 16.56C208.09 16.16 209.383 15.96 210.663 15.96C212.236 15.96 213.53 16.2133 214.543 16.72C215.556 17.2267 216.316 17.88 216.823 18.68C217.33 19.48 217.583 20.3067 217.583 21.16C217.583 21.96 217.356 22.7333 216.903 23.48C216.476 24.2 215.836 24.7867 214.983 25.24C214.13 25.6933 213.076 25.92 211.823 25.92C211.903 25.5467 211.956 25.2133 211.983 24.92C212.01 24.6 212.023 24.32 212.023 24.08C212.023 22.7467 211.73 21.8 211.143 21.24C210.583 20.6533 209.956 20.36 209.263 20.36C208.596 20.36 207.956 20.6133 207.343 21.12C206.73 21.6 206.423 22.3867 206.423 23.48C206.423 24.4133 206.663 25.2133 207.143 25.88C207.65 26.5467 208.29 27.1333 209.063 27.64C209.863 28.1467 210.703 28.64 211.583 29.12C212.49 29.6 213.356 30.1333 214.183 30.72C215.036 31.28 215.743 31.9467 216.303 32.72C216.863 33.4933 217.143 34.4667 217.143 35.64C217.143 36.8667 216.81 38.0667 216.143 39.24C215.476 40.3867 214.57 41.4133 213.423 42.32C212.276 43.2 210.956 43.9067 209.463 44.44C207.996 44.9733 206.45 45.24 204.823 45.24ZM227.342 45.28C225.582 45.28 224.089 44.88 222.862 44.08C221.662 43.28 220.755 42.24 220.142 40.96C219.529 39.6533 219.222 38.2533 219.222 36.76C219.222 35.3467 219.489 33.9333 220.022 32.52C220.582 31.1067 221.395 29.8133 222.462 28.64C223.529 27.44 224.822 26.4933 226.342 25.8C227.889 25.08 229.662 24.72 231.662 24.72C233.635 24.72 235.102 25.12 236.062 25.92C237.022 26.6933 237.502 27.5467 237.502 28.48C237.502 29.4667 237.009 30.3733 236.022 31.2C235.035 32.0267 233.595 32.44 231.702 32.44C231.809 32.04 231.889 31.64 231.942 31.24C232.022 30.8133 232.062 30.4133 232.062 30.04C232.062 29.48 231.942 29.0133 231.702 28.64C231.462 28.24 231.035 28.04 230.422 28.04C229.862 28.04 229.262 28.2933 228.622 28.8C228.009 29.3067 227.475 30.0533 227.022 31.04C226.595 32.0267 226.382 33.24 226.382 34.68C226.382 36.0933 226.609 37.24 227.062 38.12C227.542 39 228.155 39.64 228.902 40.04C229.649 40.4133 230.435 40.6 231.262 40.6C232.355 40.6 233.409 40.32 234.422 39.76C235.435 39.1733 236.169 38.3733 236.622 37.36L237.022 37.52C237.022 38.9067 236.702 40.0933 236.062 41.08C235.449 42.04 234.649 42.84 233.662 43.48C232.675 44.0933 231.622 44.5467 230.502 44.84C229.382 45.1333 228.329 45.28 227.342 45.28ZM247.912 45.28C245.912 45.28 244.259 44.88 242.952 44.08C241.646 43.28 240.672 42.2267 240.032 40.92C239.419 39.5867 239.112 38.1733 239.112 36.68C239.112 35.2667 239.366 33.8533 239.872 32.44C240.406 31.0267 241.166 29.7467 242.152 28.6C243.166 27.4267 244.392 26.4933 245.832 25.8C247.272 25.08 248.926 24.72 250.792 24.72C252.792 24.72 254.432 25.1333 255.712 25.96C257.019 26.76 257.979 27.8267 258.592 29.16C259.232 30.4933 259.552 31.92 259.552 33.44C259.552 34.8267 259.299 36.2267 258.792 37.64C258.286 39.0267 257.526 40.3067 256.512 41.48C255.526 42.6267 254.312 43.5467 252.872 44.24C251.432 44.9333 249.779 45.28 247.912 45.28ZM248.992 41.88C249.712 41.88 250.312 41.5067 250.792 40.76C251.272 40.0133 251.632 39.0667 251.872 37.92C252.112 36.7467 252.232 35.56 252.232 34.36C252.232 33.2933 252.126 32.2933 251.912 31.36C251.726 30.4 251.432 29.6267 251.032 29.04C250.632 28.4267 250.112 28.12 249.472 28.12C248.779 28.12 248.179 28.4933 247.672 29.24C247.192 29.9867 246.832 30.9333 246.592 32.08C246.352 33.2267 246.232 34.4133 246.232 35.64C246.232 36.7067 246.326 37.72 246.512 38.68C246.726 39.6133 247.032 40.3867 247.432 41C247.832 41.5867 248.352 41.88 248.992 41.88ZM266.567 45.16C265.608 45.16 264.754 44.7733 264.008 44C263.261 43.2 262.888 42.08 262.888 40.64C262.888 39.9467 262.968 39.16 263.128 38.28C263.288 37.4 263.474 36.5067 263.688 35.6C263.901 34.6667 264.088 33.8 264.248 33C264.408 32.1733 264.488 31.4933 264.488 30.96C264.488 30.4 264.381 29.96 264.168 29.64C263.981 29.2933 263.728 29.12 263.408 29.12C262.901 29.12 262.381 29.4667 261.848 30.16L261.608 30C261.581 29.5733 261.674 29.0667 261.888 28.48C262.101 27.8933 262.434 27.3333 262.888 26.8C263.341 26.24 263.914 25.7733 264.608 25.4C265.328 25.0267 266.168 24.84 267.128 24.84C268.541 24.84 269.568 25.2533 270.208 26.08C270.848 26.88 271.168 27.8533 271.168 29C271.168 29.1867 271.154 29.3867 271.128 29.6C271.128 29.7867 271.114 29.9733 271.088 30.16C272.048 28.4267 273.048 27.1067 274.088 26.2C275.154 25.2667 276.141 24.8 277.048 24.8C277.901 24.8 278.528 25.1333 278.928 25.8C279.328 26.4667 279.528 27.2667 279.528 28.2C279.528 29.0533 279.354 29.92 279.008 30.8C278.688 31.68 278.194 32.4133 277.528 33C276.888 33.56 276.101 33.8267 275.168 33.8L275.008 33.72C274.981 33.0267 274.754 32.48 274.328 32.08C273.901 31.68 273.421 31.48 272.888 31.48C272.168 31.48 271.488 31.84 270.848 32.56C270.234 33.28 269.928 34.32 269.928 35.68C269.928 36.5067 270.021 37.4 270.208 38.36C270.394 39.32 270.488 40.1333 270.488 40.8C270.488 41.6 270.301 42.3333 269.928 43C269.554 43.6667 269.074 44.2 268.488 44.6C267.901 44.9733 267.261 45.16 266.567 45.16ZM287.884 23.6C286.817 23.6 285.937 23.28 285.244 22.64C284.577 21.9733 284.244 21.1467 284.244 20.16C284.244 19.0933 284.644 18.1733 285.444 17.4C286.244 16.6267 287.217 16.24 288.364 16.24C289.431 16.24 290.297 16.5733 290.964 17.24C291.657 17.9067 292.004 18.7333 292.004 19.72C292.004 20.7867 291.604 21.7067 290.804 22.48C290.004 23.2267 289.031 23.6 287.884 23.6ZM285.084 45.16C284.044 45.16 283.111 44.8 282.284 44.08C281.457 43.3333 281.044 42.1467 281.044 40.52C281.044 39.5867 281.164 38.72 281.404 37.92C281.671 37.0933 281.964 36.2933 282.284 35.52C282.631 34.7467 282.924 34 283.164 33.28C283.431 32.5333 283.564 31.8 283.564 31.08C283.564 30.44 283.457 29.9867 283.244 29.72C283.031 29.4267 282.777 29.28 282.484 29.28C282.031 29.28 281.591 29.5733 281.164 30.16L280.884 30C280.991 28.9333 281.324 28.0267 281.884 27.28C282.471 26.5067 283.177 25.9067 284.004 25.48C284.857 25.0533 285.697 24.84 286.524 24.84C287.537 24.84 288.417 25.1733 289.164 25.84C289.911 26.48 290.284 27.5333 290.284 29C290.284 29.88 290.151 30.8133 289.884 31.8C289.644 32.76 289.351 33.72 289.004 34.68C288.684 35.64 288.391 36.5333 288.124 37.36C287.884 38.1867 287.764 38.8933 287.764 39.48C287.764 39.9867 287.857 40.3467 288.044 40.56C288.257 40.7733 288.484 40.88 288.724 40.88C288.964 40.88 289.191 40.8133 289.404 40.68C289.644 40.52 289.817 40.3467 289.924 40.16L290.204 40.24C290.204 41.2267 289.937 42.0933 289.404 42.84C288.897 43.56 288.257 44.1333 287.484 44.56C286.711 44.96 285.911 45.16 285.084 45.16ZM297.935 45.12C296.948 45.12 296.055 44.7333 295.255 43.96C294.455 43.16 294.055 42.0533 294.055 40.64C294.055 39.9467 294.148 39.16 294.335 38.28C294.521 37.4 294.721 36.5067 294.935 35.6C295.175 34.6933 295.388 33.84 295.575 33.04C295.761 32.24 295.855 31.5867 295.855 31.08C295.855 30.5467 295.748 30.1333 295.535 29.84C295.321 29.52 295.041 29.36 294.695 29.36C294.241 29.36 293.748 29.6267 293.215 30.16L292.975 30C292.948 29.5733 293.041 29.0667 293.255 28.48C293.468 27.8933 293.788 27.3333 294.215 26.8C294.668 26.24 295.241 25.7733 295.935 25.4C296.628 25.0267 297.455 24.84 298.415 24.84C299.828 24.84 300.868 25.2533 301.535 26.08C302.228 26.88 302.575 27.8667 302.575 29.04C302.575 29.4667 302.535 29.88 302.455 30.28C303.015 29.4533 303.708 28.6267 304.535 27.8C305.361 26.9467 306.268 26.24 307.255 25.68C308.268 25.12 309.308 24.84 310.375 24.84C311.628 24.84 312.481 25.24 312.935 26.04C313.388 26.84 313.615 27.84 313.615 29.04C313.615 30.16 313.495 31.36 313.255 32.64C313.015 33.92 312.775 35.16 312.535 36.36C312.295 37.5333 312.175 38.52 312.175 39.32C312.175 40.3867 312.481 40.92 313.095 40.92C313.415 40.92 313.695 40.8267 313.935 40.64C314.175 40.4267 314.335 40.2267 314.415 40.04L314.695 40.16C314.695 41.1467 314.415 42.0133 313.855 42.76C313.321 43.5067 312.641 44.0933 311.815 44.52C310.988 44.92 310.148 45.12 309.295 45.12C308.255 45.12 307.335 44.76 306.535 44.04C305.735 43.32 305.335 42.1467 305.335 40.52C305.335 39.56 305.455 38.52 305.695 37.4C305.961 36.28 306.215 35.2 306.455 34.16C306.695 33.12 306.815 32.2667 306.815 31.6C306.815 31.2 306.735 30.8933 306.575 30.68C306.441 30.44 306.188 30.32 305.815 30.32C305.201 30.32 304.521 30.6 303.775 31.16C303.055 31.72 302.428 32.4667 301.895 33.4C301.388 34.3333 301.135 35.36 301.135 36.48C301.135 37.2 301.215 37.8933 301.375 38.56C301.561 39.2267 301.655 39.9467 301.655 40.72C301.655 42.16 301.281 43.2533 300.535 44C299.788 44.7467 298.921 45.12 297.935 45.12ZM326.451 53C325.145 53 324.065 52.6133 323.211 51.84C322.358 51.0667 321.931 49.9733 321.931 48.56C321.931 47.04 322.465 45.2533 323.531 43.2C323.345 43.2533 323.158 43.2933 322.971 43.32C322.785 43.3467 322.598 43.36 322.411 43.36C320.865 43.36 319.558 42.6933 318.491 41.36C317.451 40 316.931 38.12 316.931 35.72C316.931 33.56 317.345 31.6533 318.171 30C319.025 28.3467 320.105 27.0533 321.411 26.12C322.718 25.1867 324.078 24.72 325.491 24.72C326.478 24.72 327.371 24.9733 328.171 25.48C328.971 25.96 329.625 26.7467 330.131 27.84C330.158 27.5733 330.171 27.3333 330.171 27.12C330.171 26.9067 330.171 26.7067 330.171 26.52C330.171 26.0667 330.518 25.6933 331.211 25.4C331.905 25.1067 332.678 24.96 333.531 24.96C334.305 24.96 335.025 25.1067 335.691 25.4C336.358 25.6933 336.798 26.1867 337.011 26.88L337.091 27.12C336.851 27.3333 336.638 28.0267 336.451 29.2C336.291 30.3733 336.091 32 335.851 34.08C335.691 35.3867 335.491 36.88 335.251 38.56C335.011 40.2133 334.678 41.8933 334.251 43.6C333.851 45.28 333.318 46.8267 332.651 48.24C331.985 49.68 331.145 50.8267 330.131 51.68C329.118 52.56 327.891 53 326.451 53ZM325.131 38.76C325.905 38.76 326.758 38.1333 327.691 36.88C328.651 35.6 329.411 33.7733 329.971 31.4C329.491 30.36 328.998 29.6267 328.491 29.2C328.011 28.7467 327.518 28.52 327.011 28.52C326.345 28.52 325.718 28.8533 325.131 29.52C324.545 30.1867 324.065 31.04 323.691 32.08C323.345 33.0933 323.171 34.1467 323.171 35.24C323.171 36.36 323.358 37.2267 323.731 37.84C324.105 38.4533 324.571 38.76 325.131 38.76ZM324.651 48.4C325.558 48.4 326.478 47.5067 327.411 45.72C328.371 43.96 329.038 41.4667 329.411 38.24C327.385 40.9867 325.971 43.1067 325.171 44.6C324.398 46.0667 324.011 47.1067 324.011 47.72C324.011 48.1733 324.225 48.4 324.651 48.4Z" fill="#3881A2"/>
<defs>
<linearGradient id="paint0_linear_4009_1593" x1="20" y1="6.77393" x2="20" y2="46.226" gradientUnits="userSpaceOnUse">
<stop stop-color="#3881A2"/>
<stop offset="1" stop-color="#50ACB7"/>
</linearGradient>
</defs>
</svg>
