<svg width="532" height="73" viewBox="0 0 532 73" fill="none" xmlns="http://www.w3.org/2000/svg">
<path d="M29.9492 54.8956H0.347656V3.49719H29.9492V12.4269H11.2461V23.712H28.6484V32.6417H11.2461V45.8956H29.9492V54.8956ZM62.1875 14.8527C66.3828 14.8527 69.7578 16.0011 72.3125 18.298C74.8672 20.5714 76.1445 24.2277 76.1445 29.2667V54.8956H65.4219V31.9386C65.4219 29.1261 64.9062 27.005 63.875 25.5753C62.8672 24.1456 61.2734 23.4308 59.0938 23.4308C55.8125 23.4308 53.5742 24.5441 52.3789 26.7706C51.1836 28.9972 50.5859 32.2081 50.5859 36.4034V54.8956H39.8633V15.5909H48.0547L49.4961 20.6183H50.0938C50.9375 19.2589 51.9805 18.1573 53.2227 17.3136C54.4883 16.4698 55.8828 15.8488 57.4062 15.4503C58.9531 15.0519 60.5469 14.8527 62.1875 14.8527ZM98.6797 72.1925C93.1953 72.1925 89 71.2316 86.0938 69.3097C83.2109 67.4113 81.7695 64.7394 81.7695 61.2941C81.7695 58.9269 82.5078 56.9464 83.9844 55.3527C85.4609 53.7589 87.6289 52.6222 90.4883 51.9425C89.3867 51.4738 88.4258 50.712 87.6055 49.6573C86.7852 48.5792 86.375 47.4425 86.375 46.2472C86.375 44.7472 86.8086 43.505 87.6758 42.5206C88.543 41.5128 89.7969 40.5284 91.4375 39.5675C89.375 38.6769 87.7344 37.2472 86.5156 35.2784C85.3203 33.3097 84.7227 30.9894 84.7227 28.3175C84.7227 25.4581 85.3438 23.0323 86.5859 21.0402C87.8516 19.0245 89.6797 17.4894 92.0703 16.4347C94.4844 15.38 97.4141 14.8527 100.859 14.8527C101.586 14.8527 102.43 14.8995 103.391 14.9933C104.352 15.087 105.23 15.1925 106.027 15.3097C106.848 15.4269 107.398 15.5206 107.68 15.5909H121.391V21.0402L115.238 22.6222C115.801 23.4894 116.223 24.4152 116.504 25.3995C116.785 26.3839 116.926 27.4269 116.926 28.5284C116.926 32.7472 115.449 36.0402 112.496 38.4073C109.566 40.7511 105.488 41.923 100.262 41.923C99.0195 41.8527 97.8477 41.7589 96.7461 41.6417C96.207 42.0636 95.7969 42.5089 95.5156 42.9777C95.2344 43.4464 95.0938 43.9386 95.0938 44.4542C95.0938 44.9698 95.3047 45.4034 95.7266 45.755C96.1719 46.0831 96.8281 46.3409 97.6953 46.5284C98.5859 46.6925 99.6875 46.7745 101 46.7745H107.68C111.992 46.7745 115.273 47.7003 117.523 49.5519C119.797 51.4034 120.934 54.1222 120.934 57.7081C120.934 62.3019 119.012 65.8644 115.168 68.3956C111.348 70.9269 105.852 72.1925 98.6797 72.1925ZM99.1367 65.1964C101.691 65.1964 103.883 64.9503 105.711 64.4581C107.562 63.9894 108.98 63.3097 109.965 62.4191C110.949 61.5519 111.441 60.5089 111.441 59.2902C111.441 58.3058 111.148 57.5206 110.562 56.9347C110 56.3722 109.133 55.9738 107.961 55.7394C106.812 55.505 105.336 55.3878 103.531 55.3878H97.9766C96.6641 55.3878 95.4805 55.5988 94.4258 56.0206C93.3945 56.4425 92.5742 57.0284 91.9648 57.7784C91.3555 58.5519 91.0508 59.4425 91.0508 60.4503C91.0508 61.9269 91.7539 63.087 93.1602 63.9308C94.5898 64.7745 96.582 65.1964 99.1367 65.1964ZM100.859 35.3839C102.875 35.3839 104.352 34.7628 105.289 33.5206C106.227 32.2784 106.695 30.5909 106.695 28.4581C106.695 26.0909 106.203 24.3214 105.219 23.1495C104.258 21.9542 102.805 21.3566 100.859 21.3566C98.8906 21.3566 97.4141 21.9542 96.4297 23.1495C95.4453 24.3214 94.9531 26.0909 94.9531 28.4581C94.9531 30.5909 95.4336 32.2784 96.3945 33.5206C97.3789 34.7628 98.8672 35.3839 100.859 35.3839ZM138.617 54.8956H127.895V0.192505H138.617V54.8956ZM160.625 15.5909V54.8956H149.902V15.5909H160.625ZM155.281 0.192505C156.875 0.192505 158.246 0.567505 159.395 1.3175C160.543 2.04407 161.117 3.41516 161.117 5.43079C161.117 7.42297 160.543 8.80579 159.395 9.57922C158.246 10.3292 156.875 10.7042 155.281 10.7042C153.664 10.7042 152.281 10.3292 151.133 9.57922C150.008 8.80579 149.445 7.42297 149.445 5.43079C149.445 3.41516 150.008 2.04407 151.133 1.3175C152.281 0.567505 153.664 0.192505 155.281 0.192505ZM199.332 43.2238C199.332 45.8956 198.699 48.1573 197.434 50.0089C196.191 51.837 194.328 53.2316 191.844 54.1925C189.359 55.13 186.266 55.5988 182.562 55.5988C179.82 55.5988 177.465 55.423 175.496 55.0714C173.551 54.7198 171.582 54.1339 169.59 53.3136V44.4542C171.723 45.4152 174.008 46.212 176.445 46.8448C178.906 47.4542 181.062 47.7589 182.914 47.7589C185 47.7589 186.488 47.4542 187.379 46.8448C188.293 46.212 188.75 45.3917 188.75 44.3839C188.75 43.7277 188.562 43.1417 188.188 42.6261C187.836 42.087 187.062 41.4894 185.867 40.8331C184.672 40.1534 182.797 39.2745 180.242 38.1964C177.781 37.1652 175.754 36.1222 174.16 35.0675C172.59 34.0128 171.418 32.7706 170.645 31.3409C169.895 29.8878 169.52 28.048 169.52 25.8214C169.52 22.1886 170.926 19.4581 173.738 17.63C176.574 15.7784 180.359 14.8527 185.094 14.8527C187.531 14.8527 189.852 15.0988 192.055 15.5909C194.281 16.0831 196.566 16.8683 198.91 17.9464L195.676 25.6808C193.73 24.837 191.891 24.1456 190.156 23.6066C188.445 23.0675 186.699 22.798 184.918 22.798C183.348 22.798 182.164 23.0089 181.367 23.4308C180.57 23.8527 180.172 24.4972 180.172 25.3644C180.172 25.9972 180.371 26.5597 180.77 27.0519C181.191 27.5441 181.988 28.0948 183.16 28.7042C184.355 29.2902 186.102 30.0519 188.398 30.9894C190.625 31.9034 192.559 32.8644 194.199 33.8722C195.84 34.8566 197.105 36.087 197.996 37.5636C198.887 39.0167 199.332 40.9034 199.332 43.2238ZM218.422 0.192505V11.337C218.422 13.2823 218.352 15.1339 218.211 16.8917C218.094 18.6495 218 19.8917 217.93 20.6183H218.492C219.336 19.2589 220.332 18.1573 221.48 17.3136C222.652 16.4698 223.941 15.8488 225.348 15.4503C226.754 15.0519 228.266 14.8527 229.883 14.8527C232.719 14.8527 235.191 15.3566 237.301 16.3644C239.41 17.3488 241.051 18.9073 242.223 21.0402C243.395 23.1495 243.98 25.8917 243.98 29.2667V54.8956H233.258V31.9386C233.258 29.1261 232.742 27.005 231.711 25.5753C230.68 24.1456 229.086 23.4308 226.93 23.4308C224.773 23.4308 223.074 23.9347 221.832 24.9425C220.59 25.9269 219.711 27.3917 219.195 29.337C218.68 31.2589 218.422 33.6144 218.422 36.4034V54.8956H207.699V0.192505H218.422ZM304.906 40.6222C304.906 43.6691 304.168 46.3175 302.691 48.5675C301.215 50.8175 299.059 52.5519 296.223 53.7706C293.41 54.9894 289.988 55.5988 285.957 55.5988C284.176 55.5988 282.43 55.4816 280.719 55.2472C279.031 55.0128 277.402 54.673 275.832 54.2277C274.285 53.7589 272.809 53.1847 271.402 52.505V42.38C273.84 43.4581 276.371 44.4308 278.996 45.298C281.621 46.1652 284.223 46.5988 286.801 46.5988C288.582 46.5988 290.012 46.3644 291.09 45.8956C292.191 45.4269 292.988 44.7823 293.48 43.962C293.973 43.1417 294.219 42.2042 294.219 41.1495C294.219 39.8605 293.785 38.7589 292.918 37.8448C292.051 36.9308 290.855 36.0753 289.332 35.2784C287.832 34.4816 286.133 33.6261 284.234 32.712C283.039 32.1495 281.738 31.4698 280.332 30.673C278.926 29.8527 277.59 28.8566 276.324 27.6847C275.059 26.5128 274.016 25.0948 273.195 23.4308C272.398 21.7433 272 19.7277 272 17.3839C272 14.3136 272.703 11.6886 274.109 9.50891C275.516 7.32922 277.52 5.66516 280.121 4.51672C282.746 3.34485 285.84 2.75891 289.402 2.75891C292.074 2.75891 294.617 3.07532 297.031 3.70813C299.469 4.3175 302.012 5.20813 304.66 6.38L301.145 14.8527C298.777 13.8917 296.656 13.1534 294.781 12.6378C292.906 12.0988 290.996 11.8292 289.051 11.8292C287.691 11.8292 286.531 12.0519 285.57 12.4972C284.609 12.9191 283.883 13.5284 283.391 14.3253C282.898 15.0988 282.652 16.0011 282.652 17.0323C282.652 18.2511 283.004 19.2823 283.707 20.1261C284.434 20.9464 285.512 21.7433 286.941 22.5167C288.395 23.2902 290.199 24.1925 292.355 25.2238C294.98 26.4659 297.219 27.7667 299.07 29.1261C300.945 30.462 302.387 32.0441 303.395 33.8722C304.402 35.6769 304.906 37.9269 304.906 40.6222ZM329.34 55.5988C325.449 55.5988 322.133 54.8956 319.391 53.4894C316.648 52.0597 314.562 49.8566 313.133 46.88C311.703 43.9034 310.988 40.0948 310.988 35.4542C310.988 30.6495 311.797 26.7355 313.414 23.712C315.055 20.6652 317.316 18.4269 320.199 16.9972C323.105 15.5675 326.469 14.8527 330.289 14.8527C333.008 14.8527 335.352 15.1222 337.32 15.6613C339.312 16.1769 341.047 16.798 342.523 17.5245L339.359 25.8214C337.672 25.1417 336.102 24.5909 334.648 24.1691C333.195 23.7238 331.742 23.5011 330.289 23.5011C328.414 23.5011 326.855 23.9464 325.613 24.837C324.371 25.7042 323.445 27.0167 322.836 28.7745C322.227 30.5323 321.922 32.7355 321.922 35.3839C321.922 37.9855 322.25 40.1417 322.906 41.8527C323.562 43.5636 324.512 44.8409 325.754 45.6847C326.996 46.505 328.508 46.9152 330.289 46.9152C332.516 46.9152 334.496 46.6222 336.23 46.0363C337.965 45.4269 339.652 44.5831 341.293 43.505V52.6808C339.652 53.712 337.93 54.4503 336.125 54.8956C334.344 55.3644 332.082 55.5988 329.34 55.5988ZM386.152 35.173C386.152 38.4542 385.707 41.3605 384.816 43.8917C383.949 46.423 382.672 48.5675 380.984 50.3253C379.32 52.0597 377.305 53.3722 374.938 54.2628C372.594 55.1534 369.945 55.5988 366.992 55.5988C364.227 55.5988 361.684 55.1534 359.363 54.2628C357.066 53.3722 355.062 52.0597 353.352 50.3253C351.664 48.5675 350.352 46.423 349.414 43.8917C348.5 41.3605 348.043 38.4542 348.043 35.173C348.043 30.8136 348.816 27.1222 350.363 24.0988C351.91 21.0753 354.113 18.7784 356.973 17.2081C359.832 15.6378 363.242 14.8527 367.203 14.8527C370.883 14.8527 374.141 15.6378 376.977 17.2081C379.836 18.7784 382.074 21.0753 383.691 24.0988C385.332 27.1222 386.152 30.8136 386.152 35.173ZM358.977 35.173C358.977 37.7511 359.258 39.9191 359.82 41.6769C360.383 43.4347 361.262 44.7589 362.457 45.6495C363.652 46.5402 365.211 46.9855 367.133 46.9855C369.031 46.9855 370.566 46.5402 371.738 45.6495C372.934 44.7589 373.801 43.4347 374.34 41.6769C374.902 39.9191 375.184 37.7511 375.184 35.173C375.184 32.5714 374.902 30.4152 374.34 28.7042C373.801 26.9698 372.934 25.6691 371.738 24.8019C370.543 23.9347 368.984 23.5011 367.062 23.5011C364.227 23.5011 362.164 24.4738 360.875 26.4191C359.609 28.3644 358.977 31.2823 358.977 35.173ZM416.949 14.8527C417.488 14.8527 418.109 14.8878 418.812 14.9581C419.539 15.005 420.125 15.0753 420.57 15.1691L419.762 25.2238C419.41 25.1066 418.906 25.0245 418.25 24.9777C417.617 24.9073 417.066 24.8722 416.598 24.8722C415.215 24.8722 413.867 25.048 412.555 25.3995C411.266 25.7511 410.105 26.3253 409.074 27.1222C408.043 27.8956 407.223 28.9269 406.613 30.2159C406.027 31.4816 405.734 33.0402 405.734 34.8917V54.8956H395.012V15.5909H403.133L404.715 22.2003H405.242C406.016 20.8644 406.977 19.6456 408.125 18.5441C409.297 17.4191 410.621 16.5284 412.098 15.8722C413.598 15.1925 415.215 14.8527 416.949 14.8527ZM438.43 15.5909V54.8956H427.707V15.5909H438.43ZM433.086 0.192505C434.68 0.192505 436.051 0.567505 437.199 1.3175C438.348 2.04407 438.922 3.41516 438.922 5.43079C438.922 7.42297 438.348 8.80579 437.199 9.57922C436.051 10.3292 434.68 10.7042 433.086 10.7042C431.469 10.7042 430.086 10.3292 428.938 9.57922C427.812 8.80579 427.25 7.42297 427.25 5.43079C427.25 3.41516 427.812 2.04407 428.938 1.3175C430.086 0.567505 431.469 0.192505 433.086 0.192505ZM472.039 14.8527C476.234 14.8527 479.609 16.0011 482.164 18.298C484.719 20.5714 485.996 24.2277 485.996 29.2667V54.8956H475.273V31.9386C475.273 29.1261 474.758 27.005 473.727 25.5753C472.719 24.1456 471.125 23.4308 468.945 23.4308C465.664 23.4308 463.426 24.5441 462.23 26.7706C461.035 28.9972 460.438 32.2081 460.438 36.4034V54.8956H449.715V15.5909H457.906L459.348 20.6183H459.945C460.789 19.2589 461.832 18.1573 463.074 17.3136C464.34 16.4698 465.734 15.8488 467.258 15.4503C468.805 15.0519 470.398 14.8527 472.039 14.8527ZM508.531 72.1925C503.047 72.1925 498.852 71.2316 495.945 69.3097C493.062 67.4113 491.621 64.7394 491.621 61.2941C491.621 58.9269 492.359 56.9464 493.836 55.3527C495.312 53.7589 497.48 52.6222 500.34 51.9425C499.238 51.4738 498.277 50.712 497.457 49.6573C496.637 48.5792 496.227 47.4425 496.227 46.2472C496.227 44.7472 496.66 43.505 497.527 42.5206C498.395 41.5128 499.648 40.5284 501.289 39.5675C499.227 38.6769 497.586 37.2472 496.367 35.2784C495.172 33.3097 494.574 30.9894 494.574 28.3175C494.574 25.4581 495.195 23.0323 496.438 21.0402C497.703 19.0245 499.531 17.4894 501.922 16.4347C504.336 15.38 507.266 14.8527 510.711 14.8527C511.438 14.8527 512.281 14.8995 513.242 14.9933C514.203 15.087 515.082 15.1925 515.879 15.3097C516.699 15.4269 517.25 15.5206 517.531 15.5909H531.242V21.0402L525.09 22.6222C525.652 23.4894 526.074 24.4152 526.355 25.3995C526.637 26.3839 526.777 27.4269 526.777 28.5284C526.777 32.7472 525.301 36.0402 522.348 38.4073C519.418 40.7511 515.34 41.923 510.113 41.923C508.871 41.8527 507.699 41.7589 506.598 41.6417C506.059 42.0636 505.648 42.5089 505.367 42.9777C505.086 43.4464 504.945 43.9386 504.945 44.4542C504.945 44.9698 505.156 45.4034 505.578 45.755C506.023 46.0831 506.68 46.3409 507.547 46.5284C508.438 46.6925 509.539 46.7745 510.852 46.7745H517.531C521.844 46.7745 525.125 47.7003 527.375 49.5519C529.648 51.4034 530.785 54.1222 530.785 57.7081C530.785 62.3019 528.863 65.8644 525.02 68.3956C521.199 70.9269 515.703 72.1925 508.531 72.1925ZM508.988 65.1964C511.543 65.1964 513.734 64.9503 515.562 64.4581C517.414 63.9894 518.832 63.3097 519.816 62.4191C520.801 61.5519 521.293 60.5089 521.293 59.2902C521.293 58.3058 521 57.5206 520.414 56.9347C519.852 56.3722 518.984 55.9738 517.812 55.7394C516.664 55.505 515.188 55.3878 513.383 55.3878H507.828C506.516 55.3878 505.332 55.5988 504.277 56.0206C503.246 56.4425 502.426 57.0284 501.816 57.7784C501.207 58.5519 500.902 59.4425 500.902 60.4503C500.902 61.9269 501.605 63.087 503.012 63.9308C504.441 64.7745 506.434 65.1964 508.988 65.1964ZM510.711 35.3839C512.727 35.3839 514.203 34.7628 515.141 33.5206C516.078 32.2784 516.547 30.5909 516.547 28.4581C516.547 26.0909 516.055 24.3214 515.07 23.1495C514.109 21.9542 512.656 21.3566 510.711 21.3566C508.742 21.3566 507.266 21.9542 506.281 23.1495C505.297 24.3214 504.805 26.0909 504.805 28.4581C504.805 30.5909 505.285 32.2784 506.246 33.5206C507.23 34.7628 508.719 35.3839 510.711 35.3839Z" fill="#3881A2"/>
</svg>
