
<svg width="382" height="54" viewBox="0 0 382 54" fill="none" xmlns="http://www.w3.org/2000/svg">
<rect y="7.27393" width="40" height="39.4521" rx="19.726" fill="url(#paint0_linear_4173_3854)"/>
<path d="M7.73256 22.6307H7.56836V31.3833H7.73256V22.6307Z" fill="white"/>
<path d="M7.04017 22.6307H6.87598V31.3833H7.04017V22.6307Z" fill="white"/>
<path d="M6.34584 22.6311H6.18164V31.3837H6.34584V22.6311Z" fill="white"/>
<path d="M7.73256 22.6307H7.56836V31.3833H7.73256V22.6307Z" fill="white"/>
<path d="M7.04017 22.6307H6.87598V31.3833H7.04017V22.6307Z" fill="white"/>
<path d="M6.34584 22.6311H6.18164V31.3837H6.34584V22.6311Z" fill="white"/>
<path d="M16.5109 22.6307H16.3467V31.3833H16.5109V22.6307Z" fill="white"/>
<path d="M15.8204 22.6307H15.6562V31.3833H15.8204V22.6307Z" fill="white"/>
<path d="M15.1251 22.6311H14.9609V31.3837H15.1251V22.6311Z" fill="white"/>
<path d="M16.5109 22.6307H16.3467V31.3833H16.5109V22.6307Z" fill="white"/>
<path d="M15.8204 22.6307H15.6562V31.3833H15.8204V22.6307Z" fill="white"/>
<path d="M15.1251 22.6311H14.9609V31.3837H15.1251V22.6311Z" fill="white"/>
<path d="M22.67 31.1906H19.8652V31.3682H22.67V31.1906Z" fill="white"/>
<path d="M22.6671 30.484H19.8623V30.6616H22.6671V30.484Z" fill="white"/>
<path d="M22.6691 29.7733H19.8643V29.9509H22.6691V29.7733Z" fill="white"/>
<path d="M22.67 31.1906H19.8652V31.3682H22.67V31.1906Z" fill="white"/>
<path d="M22.6671 30.484H19.8623V30.6616H22.6671V30.484Z" fill="white"/>
<path d="M22.6691 29.7733H19.8643V29.9509H22.6691V29.7733Z" fill="white"/>
<path d="M31.4038 27.6294H28.3164V27.807H31.4038V27.6294Z" fill="white"/>
<path d="M31.4019 26.9193H28.3145V27.0969H31.4019V26.9193Z" fill="white"/>
<path d="M31.4038 26.2122H28.3164V26.3898H31.4038V26.2122Z" fill="white"/>
<path d="M31.4038 27.6294H28.3164V27.807H31.4038V27.6294Z" fill="white"/>
<path d="M31.4019 26.9193H28.3145V27.0969H31.4019V26.9193Z" fill="white"/>
<path d="M31.4038 26.2122H28.3164V26.3898H31.4038V26.2122Z" fill="white"/>
<path d="M31.4038 24.0476H28.3164V24.2252H31.4038V24.0476Z" fill="white"/>
<path d="M31.4019 23.3412H28.3145V23.5188H31.4019V23.3412Z" fill="white"/>
<path d="M31.4038 22.6307H28.3164V22.8084H31.4038V22.6307Z" fill="white"/>
<path d="M31.4038 24.0476H28.3164V24.2252H31.4038V24.0476Z" fill="white"/>
<path d="M31.4019 23.3412H28.3145V23.5188H31.4019V23.3412Z" fill="white"/>
<path d="M31.4038 22.6307H28.3164V22.8084H31.4038V22.6307Z" fill="white"/>
<path d="M37.8891 25.4301H32.7129V25.6077H37.8891V25.4301Z" fill="white"/>
<path d="M37.894 24.7374H32.7178V24.9151H37.894V24.7374Z" fill="white"/>
<path d="M37.8891 25.4301H32.7129V25.6077H37.8891V25.4301Z" fill="white"/>
<path d="M37.894 24.7374H32.7178V24.9151H37.894V24.7374Z" fill="white"/>
<path d="M37.8891 29.0438H32.7129V29.2214H37.8891V29.0438Z" fill="white"/>
<path d="M37.894 28.3512H32.7178V28.5288H37.894V28.3512Z" fill="white"/>
<path d="M37.8891 29.0438H32.7129V29.2214H37.8891V29.0438Z" fill="white"/>
<path d="M37.894 28.3512H32.7178V28.5288H37.894V28.3512Z" fill="white"/>
<path d="M3.32148 31.3833H1.75488L6.16665 22.6307H7.73325L3.32148 31.3833Z" fill="white"/>
<path d="M17.3498 27.9419V29.2945H11.5625L12.3458 27.7461L14.9326 22.6307H16.4992L13.9124 27.7461L13.8128 27.9419H17.3498Z" fill="white"/>
<path d="M10.8014 22.6307H9.35059V31.3833H10.8014V22.6307Z" fill="white"/>
<path d="M25.1911 22.6307H23.7402V31.3833H25.1911V22.6307Z" fill="white"/>
<path d="M28.3171 22.6307H26.8662V31.3833H28.3171V22.6307Z" fill="white"/>
<path d="M19.8649 22.6307H18.4141V31.3833H19.8649V22.6307Z" fill="white"/>
<path d="M37.8945 22.6165H32.7129V24.194H37.8945V22.6165Z" fill="white"/>
<path d="M37.8945 29.803H32.7129V31.3805H37.8945V29.803Z" fill="white"/>
<path d="M35.3912 26.1919H32.7129V27.7695H35.3912V26.1919Z" fill="white"/>
<path d="M72.0312 39.5H58.875V16.6562H72.0312V20.625H63.7188V25.6406H71.4531V29.6094H63.7188V35.5H72.0312V39.5ZM92.5625 39.5H87.7969V29.2969C87.7969 28.0365 87.5729 27.0938 87.125 26.4688C86.6771 25.8333 85.9635 25.5156 84.9844 25.5156C83.651 25.5156 82.6875 25.9635 82.0938 26.8594C81.5 27.7448 81.2031 29.2188 81.2031 31.2812V39.5H76.4375V22.0312H80.0781L80.7188 24.2656H80.9844C81.5156 23.4219 82.2448 22.7865 83.1719 22.3594C84.1094 21.9219 85.1719 21.7031 86.3594 21.7031C88.3906 21.7031 89.9323 22.2552 90.9844 23.3594C92.0365 24.4531 92.5625 26.0365 92.5625 28.1094V39.5ZM112.672 22.0312V24.4531L109.938 25.1562C110.438 25.9375 110.688 26.8125 110.688 27.7812C110.688 29.6562 110.031 31.1198 108.719 32.1719C107.417 33.2135 105.604 33.7344 103.281 33.7344L102.422 33.6875L101.719 33.6094C101.229 33.9844 100.984 34.401 100.984 34.8594C100.984 35.5469 101.859 35.8906 103.609 35.8906H106.578C108.495 35.8906 109.953 36.3021 110.953 37.125C111.964 37.9479 112.469 39.1562 112.469 40.75C112.469 42.7917 111.615 44.375 109.906 45.5C108.208 46.625 105.766 47.1875 102.578 47.1875C100.141 47.1875 98.276 46.7604 96.9844 45.9062C95.7031 45.0625 95.0625 43.875 95.0625 42.3438C95.0625 41.2917 95.3906 40.4115 96.0469 39.7031C96.7031 38.9948 97.6667 38.4896 98.9375 38.1875C98.4479 37.9792 98.0208 37.6406 97.6562 37.1719C97.2917 36.6927 97.1094 36.1875 97.1094 35.6562C97.1094 34.9896 97.3021 34.4375 97.6875 34C98.0729 33.5521 98.6302 33.1146 99.3594 32.6875C98.4427 32.2917 97.7135 31.6562 97.1719 30.7812C96.6406 29.9062 96.375 28.875 96.375 27.6875C96.375 25.7812 96.9948 24.3073 98.2344 23.2656C99.474 22.224 101.245 21.7031 103.547 21.7031C104.036 21.7031 104.615 21.75 105.281 21.8438C105.958 21.9271 106.391 21.9896 106.578 22.0312H112.672ZM99.1875 41.9688C99.1875 42.625 99.5 43.1406 100.125 43.5156C100.76 43.8906 101.646 44.0781 102.781 44.0781C104.49 44.0781 105.828 43.8438 106.797 43.375C107.766 42.9062 108.25 42.2656 108.25 41.4531C108.25 40.7969 107.964 40.3438 107.391 40.0938C106.818 39.8438 105.932 39.7188 104.734 39.7188H102.266C101.391 39.7188 100.656 39.9219 100.062 40.3281C99.4792 40.7448 99.1875 41.2917 99.1875 41.9688ZM100.922 27.75C100.922 28.6979 101.135 29.4479 101.562 30C102 30.5521 102.661 30.8281 103.547 30.8281C104.443 30.8281 105.099 30.5521 105.516 30C105.932 29.4479 106.141 28.6979 106.141 27.75C106.141 25.6458 105.276 24.5938 103.547 24.5938C101.797 24.5938 100.922 25.6458 100.922 27.75ZM120.328 39.5H115.562V15.1875H120.328V39.5ZM125.141 17.5156C125.141 15.9635 126.005 15.1875 127.734 15.1875C129.464 15.1875 130.328 15.9635 130.328 17.5156C130.328 18.2552 130.109 18.8333 129.672 19.25C129.245 19.6562 128.599 19.8594 127.734 19.8594C126.005 19.8594 125.141 19.0781 125.141 17.5156ZM130.109 39.5H125.344V22.0312H130.109V39.5ZM147.312 34.3125C147.312 36.1042 146.688 37.4688 145.438 38.4062C144.198 39.3438 142.339 39.8125 139.859 39.8125C138.589 39.8125 137.505 39.724 136.609 39.5469C135.714 39.3802 134.875 39.1302 134.094 38.7969V34.8594C134.979 35.276 135.974 35.625 137.078 35.9062C138.193 36.1875 139.172 36.3281 140.016 36.3281C141.745 36.3281 142.609 35.8281 142.609 34.8281C142.609 34.4531 142.495 34.151 142.266 33.9219C142.036 33.6823 141.641 33.4167 141.078 33.125C140.516 32.8229 139.766 32.474 138.828 32.0781C137.484 31.5156 136.495 30.9948 135.859 30.5156C135.234 30.0365 134.776 29.4896 134.484 28.875C134.203 28.25 134.062 27.4844 134.062 26.5781C134.062 25.026 134.661 23.8281 135.859 22.9844C137.068 22.1302 138.776 21.7031 140.984 21.7031C143.089 21.7031 145.135 22.1615 147.125 23.0781L145.688 26.5156C144.812 26.1406 143.995 25.8333 143.234 25.5938C142.474 25.3542 141.698 25.2344 140.906 25.2344C139.5 25.2344 138.797 25.6146 138.797 26.375C138.797 26.8021 139.021 27.1719 139.469 27.4844C139.927 27.7969 140.922 28.2604 142.453 28.875C143.818 29.4271 144.818 29.9427 145.453 30.4219C146.089 30.901 146.557 31.4531 146.859 32.0781C147.161 32.7031 147.312 33.4479 147.312 34.3125ZM167.156 39.5H162.391V29.2969C162.391 26.776 161.453 25.5156 159.578 25.5156C158.245 25.5156 157.281 25.9688 156.688 26.875C156.094 27.7812 155.797 29.25 155.797 31.2812V39.5H151.031V15.1875H155.797V20.1406C155.797 20.526 155.76 21.4323 155.688 22.8594L155.578 24.2656H155.828C156.891 22.5573 158.578 21.7031 160.891 21.7031C162.943 21.7031 164.5 22.2552 165.562 23.3594C166.625 24.4635 167.156 26.0469 167.156 28.1094V39.5ZM194.234 33.1562C194.234 35.2188 193.49 36.8438 192 38.0312C190.521 39.2188 188.458 39.8125 185.812 39.8125C183.375 39.8125 181.219 39.3542 179.344 38.4375V33.9375C180.885 34.625 182.188 35.1094 183.25 35.3906C184.323 35.6719 185.302 35.8125 186.188 35.8125C187.25 35.8125 188.062 35.6094 188.625 35.2031C189.198 34.7969 189.484 34.1927 189.484 33.3906C189.484 32.9427 189.359 32.5469 189.109 32.2031C188.859 31.849 188.49 31.5104 188 31.1875C187.521 30.8646 186.536 30.349 185.047 29.6406C183.651 28.9844 182.604 28.3542 181.906 27.75C181.208 27.1458 180.651 26.4427 180.234 25.6406C179.818 24.8385 179.609 23.901 179.609 22.8281C179.609 20.8073 180.292 19.2188 181.656 18.0625C183.031 16.9062 184.927 16.3281 187.344 16.3281C188.531 16.3281 189.661 16.4688 190.734 16.75C191.818 17.0312 192.948 17.4271 194.125 17.9375L192.562 21.7031C191.344 21.2031 190.333 20.8542 189.531 20.6562C188.74 20.4583 187.958 20.3594 187.188 20.3594C186.271 20.3594 185.568 20.5729 185.078 21C184.589 21.4271 184.344 21.9844 184.344 22.6719C184.344 23.099 184.443 23.474 184.641 23.7969C184.839 24.1094 185.151 24.4167 185.578 24.7188C186.016 25.0104 187.042 25.5417 188.656 26.3125C190.792 27.3333 192.255 28.3594 193.047 29.3906C193.839 30.4115 194.234 31.6667 194.234 33.1562ZM205.094 39.8125C199.656 39.8125 196.938 36.8281 196.938 30.8594C196.938 27.8906 197.677 25.625 199.156 24.0625C200.635 22.4896 202.755 21.7031 205.516 21.7031C207.536 21.7031 209.349 22.099 210.953 22.8906L209.547 26.5781C208.797 26.276 208.099 26.0312 207.453 25.8438C206.807 25.6458 206.161 25.5469 205.516 25.5469C203.036 25.5469 201.797 27.3073 201.797 30.8281C201.797 34.2448 203.036 35.9531 205.516 35.9531C206.432 35.9531 207.281 35.8333 208.062 35.5938C208.844 35.3438 209.625 34.9583 210.406 34.4375V38.5156C209.635 39.0052 208.854 39.3438 208.062 39.5312C207.281 39.7188 206.292 39.8125 205.094 39.8125ZM218.266 30.7344C218.266 32.4635 218.547 33.7708 219.109 34.6562C219.682 35.5417 220.609 35.9844 221.891 35.9844C223.161 35.9844 224.073 35.5469 224.625 34.6719C225.188 33.7865 225.469 32.474 225.469 30.7344C225.469 29.0052 225.188 27.7083 224.625 26.8438C224.062 25.9792 223.141 25.5469 221.859 25.5469C220.589 25.5469 219.672 25.9792 219.109 26.8438C218.547 27.6979 218.266 28.9948 218.266 30.7344ZM230.344 30.7344C230.344 33.5781 229.594 35.8021 228.094 37.4062C226.594 39.0104 224.505 39.8125 221.828 39.8125C220.151 39.8125 218.672 39.4479 217.391 38.7188C216.109 37.9792 215.125 36.9219 214.438 35.5469C213.75 34.1719 213.406 32.5677 213.406 30.7344C213.406 27.8802 214.151 25.6615 215.641 24.0781C217.13 22.4948 219.224 21.7031 221.922 21.7031C223.599 21.7031 225.078 22.0677 226.359 22.7969C227.641 23.526 228.625 24.5729 229.312 25.9375C230 27.3021 230.344 28.901 230.344 30.7344ZM244.031 21.7031C244.677 21.7031 245.214 21.75 245.641 21.8438L245.281 26.3125C244.896 26.2083 244.427 26.1562 243.875 26.1562C242.354 26.1562 241.167 26.5469 240.312 27.3281C239.469 28.1094 239.047 29.2031 239.047 30.6094V39.5H234.281V22.0312H237.891L238.594 24.9688H238.828C239.37 23.9896 240.099 23.2031 241.016 22.6094C241.943 22.0052 242.948 21.7031 244.031 21.7031ZM248.609 17.5156C248.609 15.9635 249.474 15.1875 251.203 15.1875C252.932 15.1875 253.797 15.9635 253.797 17.5156C253.797 18.2552 253.578 18.8333 253.141 19.25C252.714 19.6562 252.068 19.8594 251.203 19.8594C249.474 19.8594 248.609 19.0781 248.609 17.5156ZM253.578 39.5H248.812V22.0312H253.578V39.5ZM274.719 39.5H269.953V29.2969C269.953 28.0365 269.729 27.0938 269.281 26.4688C268.833 25.8333 268.12 25.5156 267.141 25.5156C265.807 25.5156 264.844 25.9635 264.25 26.8594C263.656 27.7448 263.359 29.2188 263.359 31.2812V39.5H258.594V22.0312H262.234L262.875 24.2656H263.141C263.672 23.4219 264.401 22.7865 265.328 22.3594C266.266 21.9219 267.328 21.7031 268.516 21.7031C270.547 21.7031 272.089 22.2552 273.141 23.3594C274.193 24.4531 274.719 26.0365 274.719 28.1094V39.5ZM294.828 22.0312V24.4531L292.094 25.1562C292.594 25.9375 292.844 26.8125 292.844 27.7812C292.844 29.6562 292.188 31.1198 290.875 32.1719C289.573 33.2135 287.76 33.7344 285.438 33.7344L284.578 33.6875L283.875 33.6094C283.385 33.9844 283.141 34.401 283.141 34.8594C283.141 35.5469 284.016 35.8906 285.766 35.8906H288.734C290.651 35.8906 292.109 36.3021 293.109 37.125C294.12 37.9479 294.625 39.1562 294.625 40.75C294.625 42.7917 293.771 44.375 292.062 45.5C290.365 46.625 287.922 47.1875 284.734 47.1875C282.297 47.1875 280.432 46.7604 279.141 45.9062C277.859 45.0625 277.219 43.875 277.219 42.3438C277.219 41.2917 277.547 40.4115 278.203 39.7031C278.859 38.9948 279.823 38.4896 281.094 38.1875C280.604 37.9792 280.177 37.6406 279.812 37.1719C279.448 36.6927 279.266 36.1875 279.266 35.6562C279.266 34.9896 279.458 34.4375 279.844 34C280.229 33.5521 280.786 33.1146 281.516 32.6875C280.599 32.2917 279.87 31.6562 279.328 30.7812C278.797 29.9062 278.531 28.875 278.531 27.6875C278.531 25.7812 279.151 24.3073 280.391 23.2656C281.63 22.224 283.401 21.7031 285.703 21.7031C286.193 21.7031 286.771 21.75 287.438 21.8438C288.115 21.9271 288.547 21.9896 288.734 22.0312H294.828ZM281.344 41.9688C281.344 42.625 281.656 43.1406 282.281 43.5156C282.917 43.8906 283.802 44.0781 284.938 44.0781C286.646 44.0781 287.984 43.8438 288.953 43.375C289.922 42.9062 290.406 42.2656 290.406 41.4531C290.406 40.7969 290.12 40.3438 289.547 40.0938C288.974 39.8438 288.089 39.7188 286.891 39.7188H284.422C283.547 39.7188 282.812 39.9219 282.219 40.3281C281.635 40.7448 281.344 41.2917 281.344 41.9688ZM283.078 27.75C283.078 28.6979 283.292 29.4479 283.719 30C284.156 30.5521 284.818 30.8281 285.703 30.8281C286.599 30.8281 287.255 30.5521 287.672 30C288.089 29.4479 288.297 28.6979 288.297 27.75C288.297 25.6458 287.432 24.5938 285.703 24.5938C283.953 24.5938 283.078 25.6458 283.078 27.75Z" fill="#3881A2"/>
<defs>
<linearGradient id="paint0_linear_4173_3854" x1="20" y1="7.27393" x2="20" y2="46.726" gradientUnits="userSpaceOnUse">
<stop stop-color="#3881A2"/>
<stop offset="1" stop-color="#50ACB7"/>
</linearGradient>
</defs>
</svg>
