<svg width="382" height="53" viewBox="0 0 382 53" fill="none" xmlns="http://www.w3.org/2000/svg">
<rect y="6.77393" width="40" height="39.4521" rx="19.726" fill="url(#paint0_linear_4009_1371)"/>
<path d="M7.73256 22.1307H7.56836V30.8833H7.73256V22.1307Z" fill="white"/>
<path d="M7.04066 22.1307H6.87646V30.8833H7.04066V22.1307Z" fill="white"/>
<path d="M6.34633 22.1311H6.18213V30.8837H6.34633V22.1311Z" fill="white"/>
<path d="M7.73256 22.1307H7.56836V30.8833H7.73256V22.1307Z" fill="white"/>
<path d="M7.04066 22.1307H6.87646V30.8833H7.04066V22.1307Z" fill="white"/>
<path d="M6.34633 22.1311H6.18213V30.8837H6.34633V22.1311Z" fill="white"/>
<path d="M16.5109 22.1307H16.3467V30.8833H16.5109V22.1307Z" fill="white"/>
<path d="M15.82 22.1307H15.6558V30.8833H15.82V22.1307Z" fill="white"/>
<path d="M15.1251 22.1311H14.9609V30.8837H15.1251V22.1311Z" fill="white"/>
<path d="M16.5109 22.1307H16.3467V30.8833H16.5109V22.1307Z" fill="white"/>
<path d="M15.82 22.1307H15.6558V30.8833H15.82V22.1307Z" fill="white"/>
<path d="M15.1251 22.1311H14.9609V30.8837H15.1251V22.1311Z" fill="white"/>
<path d="M22.6698 30.6906H19.865V30.8682H22.6698V30.6906Z" fill="white"/>
<path d="M22.6666 29.984H19.8618V30.1616H22.6666V29.984Z" fill="white"/>
<path d="M22.6683 29.2733H19.8635V29.4509H22.6683V29.2733Z" fill="white"/>
<path d="M22.6698 30.6906H19.865V30.8682H22.6698V30.6906Z" fill="white"/>
<path d="M22.6666 29.984H19.8618V30.1616H22.6666V29.984Z" fill="white"/>
<path d="M22.6683 29.2733H19.8635V29.4509H22.6683V29.2733Z" fill="white"/>
<path d="M31.4038 27.1294H28.3164V27.307H31.4038V27.1294Z" fill="white"/>
<path d="M31.4019 26.4193H28.3145V26.5969H31.4019V26.4193Z" fill="white"/>
<path d="M31.4043 25.7122H28.3169V25.8898H31.4043V25.7122Z" fill="white"/>
<path d="M31.4038 27.1294H28.3164V27.307H31.4038V27.1294Z" fill="white"/>
<path d="M31.4019 26.4193H28.3145V26.5969H31.4019V26.4193Z" fill="white"/>
<path d="M31.4043 25.7122H28.3169V25.8898H31.4043V25.7122Z" fill="white"/>
<path d="M31.4038 23.5476H28.3164V23.7252H31.4038V23.5476Z" fill="white"/>
<path d="M31.4019 22.8412H28.3145V23.0188H31.4019V22.8412Z" fill="white"/>
<path d="M31.4038 22.1307H28.3164V22.3084H31.4038V22.1307Z" fill="white"/>
<path d="M31.4038 23.5476H28.3164V23.7252H31.4038V23.5476Z" fill="white"/>
<path d="M31.4019 22.8412H28.3145V23.0188H31.4019V22.8412Z" fill="white"/>
<path d="M31.4038 22.1307H28.3164V22.3084H31.4038V22.1307Z" fill="white"/>
<path d="M37.8896 24.9301H32.7134V25.1077H37.8896V24.9301Z" fill="white"/>
<path d="M37.8945 24.2374H32.7183V24.4151H37.8945V24.2374Z" fill="white"/>
<path d="M37.8896 24.9301H32.7134V25.1077H37.8896V24.9301Z" fill="white"/>
<path d="M37.8945 24.2374H32.7183V24.4151H37.8945V24.2374Z" fill="white"/>
<path d="M37.8896 28.5438H32.7134V28.7214H37.8896V28.5438Z" fill="white"/>
<path d="M37.8945 27.8512H32.7183V28.0288H37.8945V27.8512Z" fill="white"/>
<path d="M37.8896 28.5438H32.7134V28.7214H37.8896V28.5438Z" fill="white"/>
<path d="M37.8945 27.8512H32.7183V28.0288H37.8945V27.8512Z" fill="white"/>
<path d="M3.32148 30.8833H1.75488L6.16665 22.1307H7.73325L3.32148 30.8833Z" fill="white"/>
<path d="M17.3502 27.4419V28.7945H11.563L12.3463 27.2461L14.9331 22.1307H16.4996L13.9129 27.2461L13.8133 27.4419H17.3502Z" fill="white"/>
<path d="M10.8017 22.1307H9.35083V30.8833H10.8017V22.1307Z" fill="white"/>
<path d="M25.1916 22.1307H23.7407V30.8833H25.1916V22.1307Z" fill="white"/>
<path d="M28.3173 22.1307H26.8665V30.8833H28.3173V22.1307Z" fill="white"/>
<path d="M19.8654 22.1307H18.4146V30.8833H19.8654V22.1307Z" fill="white"/>
<path d="M37.895 22.1165H32.7134V23.694H37.895V22.1165Z" fill="white"/>
<path d="M37.895 29.303H32.7134V30.8805H37.895V29.303Z" fill="white"/>
<path d="M35.3917 25.6919H32.7134V27.2695H35.3917V25.6919Z" fill="white"/>
<path d="M67.04 43.92C65.7333 43.92 64.48 43.8 63.28 43.56C62.1067 43.32 61.0667 42.8667 60.16 42.2C59.28 41.5067 58.5733 40.52 58.04 39.24C57.5333 37.9333 57.28 36.2267 57.28 34.12C57.28 32.2267 57.5333 30.6 58.04 29.24C58.5467 27.88 59.1467 26.8 59.84 26C60.56 25.2 61.2133 24.7067 61.8 24.52L61.6 23.76H60.92C59.6933 23.76 58.72 23.3733 58 22.6C57.3067 21.8 56.9467 20.72 56.92 19.36C56.8933 18.0267 57.24 16.96 57.96 16.16C58.7067 15.36 59.6933 14.96 60.92 14.96H75.28C78.1333 14.96 79.56 16.2933 79.56 18.96C79.56 20.16 79.2133 21.12 78.52 21.84C77.8267 22.56 76.7467 22.92 75.28 22.92H67C66.0133 22.92 65.52 23.4933 65.52 24.64V27.64C66.8533 27.3467 68.24 27 69.68 26.6C71.1467 26.2 72.5333 26 73.84 26C75.0933 26 76.0267 26.28 76.64 26.84C77.28 27.3733 77.6 28.1067 77.6 29.04C77.6 30 77.28 30.76 76.64 31.32C76.0267 31.8533 75.0933 32.1333 73.84 32.16C72.5333 32.1867 71.1467 32 69.68 31.6C68.2133 31.2 66.8133 30.8533 65.48 30.56V35.8C65.48 36.3067 65.6133 36.6667 65.88 36.88C66.1733 37.0667 66.6267 36.9867 67.24 36.64C68.5733 35.8667 69.88 35.2533 71.16 34.8C72.44 34.32 73.6933 34.08 74.92 34.08C76.6533 34.08 77.96 34.5333 78.84 35.44C79.7467 36.3467 80.2 37.5333 80.2 39C80.2 40.5733 79.72 41.7867 78.76 42.64C77.8267 43.4933 76.3067 43.92 74.2 43.92H67.04ZM85.5303 44C84.357 44 83.4103 43.6533 82.6903 42.96C81.997 42.24 81.6503 41.36 81.6503 40.32V27.08C81.6503 25.96 81.9836 25.0133 82.6503 24.24C83.317 23.4667 84.277 23.08 85.5303 23.08C86.757 23.08 87.6903 23.4667 88.3303 24.24C88.9703 25.0133 89.2903 25.9867 89.2903 27.16V29.16H90.0103C90.0103 27.64 90.277 26.44 90.8103 25.56C91.3703 24.68 92.077 24.0533 92.9303 23.68C93.7836 23.28 94.637 23.08 95.4903 23.08C97.5436 23.08 99.0503 23.8267 100.01 25.32C100.97 26.7867 101.45 28.88 101.45 31.6V40.32C101.45 41.36 101.104 42.24 100.41 42.96C99.717 43.6533 98.7836 44 97.6103 44C96.4103 44 95.4503 43.6533 94.7303 42.96C94.037 42.24 93.6903 41.36 93.6903 40.32V33.24C93.6903 32.28 93.5036 31.5333 93.1303 31C92.7836 30.4667 92.2636 30.2 91.5703 30.2C90.7703 30.2 90.1836 30.4933 89.8103 31.08C89.4636 31.6667 89.2903 32.4133 89.2903 33.32V40.32C89.2903 41.36 88.957 42.24 88.2903 42.96C87.6236 43.6533 86.7036 44 85.5303 44ZM112.845 52.24C111.219 52.24 109.832 52.0667 108.685 51.72C107.565 51.3733 106.485 50.84 105.445 50.12C104.539 49.48 103.899 48.5867 103.525 47.44C103.152 46.2933 103.339 45.1333 104.085 43.96C104.565 43.24 105.099 42.7467 105.685 42.48C106.299 42.2133 106.885 42.1067 107.445 42.16C108.032 42.1867 108.539 42.3067 108.965 42.52C109.899 42.9733 110.619 43.3067 111.125 43.52C111.659 43.7067 112.259 43.8 112.925 43.8C113.912 43.8 114.739 43.4533 115.405 42.76C116.099 42.0667 116.445 41.0933 116.445 39.84V36.6H115.725C115.539 38.0133 114.992 39.1333 114.085 39.96C113.205 40.76 111.992 41.16 110.445 41.16C109.272 41.16 108.125 40.8667 107.005 40.28C105.885 39.6933 104.965 38.76 104.245 37.48C103.525 36.2 103.165 34.5067 103.165 32.4C103.165 29.3067 103.845 27 105.205 25.48C106.565 23.96 108.325 23.2 110.485 23.2C111.979 23.2 113.259 23.7067 114.325 24.72C115.392 25.7067 115.925 27.0933 115.925 28.88L116.045 28.84V26.6C116.045 25.6667 116.339 24.8533 116.925 24.16C117.539 23.44 118.485 23.08 119.765 23.08C121.125 23.08 122.099 23.44 122.685 24.16C123.299 24.8533 123.605 25.6667 123.605 26.6L123.645 39.2C123.672 41.9733 123.325 44.3333 122.605 46.28C121.912 48.2267 120.765 49.7067 119.165 50.72C117.592 51.7333 115.485 52.24 112.845 52.24ZM109.885 31.72C109.885 33.16 110.845 33.88 112.765 33.88C114.019 33.88 114.899 33.7067 115.405 33.36C115.912 33.0133 116.165 32.4667 116.165 31.72C116.165 30.9467 115.899 30.4133 115.365 30.12C114.859 29.8267 113.979 29.68 112.725 29.68C111.819 29.68 111.112 29.8267 110.605 30.12C110.125 30.4133 109.885 30.9467 109.885 31.72ZM129.434 44C128.127 44 127.14 43.6533 126.474 42.96C125.834 42.2667 125.514 41.4 125.514 40.36V17.16C125.514 16.0133 125.834 15.0667 126.474 14.32C127.14 13.5467 128.127 13.16 129.434 13.16C130.607 13.16 131.514 13.5467 132.154 14.32C132.794 15.0667 133.114 15.9867 133.114 17.08V40.36C133.114 41.4 132.794 42.2667 132.154 42.96C131.514 43.6533 130.607 44 129.434 44ZM135.475 18.44C135.475 17.2933 135.821 16.3733 136.515 15.68C137.235 14.96 138.221 14.6 139.475 14.6C140.808 14.6 141.795 14.9467 142.435 15.64C143.101 16.3333 143.435 17.2533 143.435 18.4C143.435 19.52 143.101 20.4267 142.435 21.12C141.795 21.7867 140.808 22.12 139.475 22.12C138.168 22.12 137.168 21.7867 136.475 21.12C135.808 20.4267 135.475 19.5333 135.475 18.44ZM139.475 44C138.221 44 137.288 43.6533 136.675 42.96C136.061 42.2667 135.755 41.4 135.755 40.36V26.68C135.755 25.5333 136.061 24.6267 136.675 23.96C137.288 23.2933 138.221 22.96 139.475 22.96C140.728 22.96 141.661 23.2933 142.275 23.96C142.915 24.6267 143.235 25.5067 143.235 26.6V40.36C143.235 41.4 142.901 42.2667 142.235 42.96C141.595 43.6533 140.675 44 139.475 44ZM155.519 44.52C153.679 44.52 151.973 44.3467 150.399 44C148.853 43.6267 147.613 43.0533 146.679 42.28C145.746 41.48 145.279 40.4267 145.279 39.12C145.279 37.9733 145.626 37.0267 146.319 36.28C147.013 35.5333 147.933 35.16 149.079 35.16C149.799 35.16 150.519 35.28 151.239 35.52C151.986 35.7333 152.773 35.9467 153.599 36.16C154.426 36.3733 155.319 36.48 156.279 36.48C157.133 36.48 157.706 36.44 157.999 36.36C158.293 36.2533 158.439 36.0667 158.439 35.8C158.439 35.48 158.253 35.2667 157.879 35.16C157.533 35.0533 156.933 34.92 156.079 34.76L153.199 34.2C151.999 33.96 150.826 33.6533 149.679 33.28C148.559 32.88 147.626 32.2933 146.879 31.52C146.159 30.7467 145.799 29.6933 145.799 28.36C145.799 26.5467 146.599 25.1333 148.199 24.12C149.826 23.1067 152.173 22.6 155.239 22.6C156.999 22.6 158.573 22.7733 159.959 23.12C161.373 23.4667 162.493 23.9867 163.319 24.68C164.146 25.3467 164.559 26.1867 164.559 27.2C164.586 28.2933 164.293 29.1733 163.679 29.84C163.066 30.5067 162.293 30.84 161.359 30.84C160.693 30.84 160.013 30.76 159.319 30.6C158.653 30.4133 157.919 30.2267 157.119 30.04C156.346 29.8267 155.453 29.7067 154.439 29.68C153.719 29.6267 153.133 29.6667 152.679 29.8C152.226 29.9333 151.999 30.1467 151.999 30.44C151.999 30.76 152.266 30.9867 152.799 31.12C153.333 31.2267 154.133 31.3733 155.199 31.56L158.039 32.08C159.773 32.3733 161.146 32.7467 162.159 33.2C163.199 33.6267 163.946 34.2267 164.399 35C164.853 35.7733 165.079 36.84 165.079 38.2C165.079 39.6133 164.666 40.8 163.839 41.76C163.039 42.6933 161.919 43.3867 160.479 43.84C159.039 44.2933 157.386 44.52 155.519 44.52ZM170.841 44C169.668 44 168.734 43.6533 168.041 42.96C167.374 42.24 167.041 41.36 167.041 40.32V17.16C167.041 16.04 167.374 15.0933 168.041 14.32C168.734 13.5467 169.708 13.16 170.961 13.16C172.188 13.16 173.108 13.5467 173.721 14.32C174.361 15.0933 174.681 16.0533 174.681 17.2V29.16H175.401C175.401 27.64 175.668 26.44 176.201 25.56C176.761 24.68 177.468 24.0533 178.321 23.68C179.201 23.28 180.094 23.08 181.001 23.08C182.601 23.08 183.814 23.48 184.641 24.28C185.494 25.0533 186.068 26.0933 186.361 27.4C186.681 28.7067 186.841 30.1333 186.841 31.68V40.32C186.841 41.4133 186.481 42.3067 185.761 43C185.068 43.6667 184.134 44 182.961 44C181.761 44 180.814 43.6667 180.121 43C179.428 42.3067 179.081 41.4133 179.081 40.32V33.24C179.081 32.28 178.894 31.5333 178.521 31C178.148 30.4667 177.601 30.2 176.881 30.2C176.161 30.2 175.614 30.4933 175.241 31.08C174.868 31.6667 174.681 32.4133 174.681 33.32V40.32C174.681 41.36 174.334 42.24 173.641 42.96C172.974 43.6533 172.041 44 170.841 44ZM208.623 44.12C207.13 44.12 205.623 43.9733 204.103 43.68C202.61 43.36 201.223 42.9067 199.943 42.32C198.69 41.7067 197.677 40.9733 196.903 40.12C196.13 39.24 195.743 38.2267 195.743 37.08C195.743 35.6133 196.21 34.44 197.143 33.56C198.077 32.68 199.17 32.2667 200.423 32.32C201.41 32.3467 202.397 32.56 203.383 32.96C204.37 33.3333 205.37 33.7067 206.383 34.08C207.423 34.4533 208.463 34.64 209.503 34.64C210.543 34.64 211.263 34.5067 211.663 34.24C212.063 33.9733 212.263 33.6133 212.263 33.16C212.263 32.6267 211.983 32.1867 211.423 31.84C210.863 31.4933 210.157 31.2267 209.303 31.04L207.343 30.56C205.317 30.08 203.503 29.5467 201.903 28.96C200.303 28.3467 199.037 27.5467 198.103 26.56C197.197 25.5467 196.743 24.2 196.743 22.52C196.743 20.68 197.25 19.1867 198.263 18.04C199.277 16.8667 200.65 16.0133 202.383 15.48C204.117 14.9467 206.05 14.68 208.183 14.68C210.37 14.68 212.29 14.9067 213.943 15.36C215.597 15.8133 216.877 16.4667 217.783 17.32C218.717 18.1733 219.183 19.2133 219.183 20.44C219.183 21.7467 218.823 22.7733 218.103 23.52C217.41 24.24 216.477 24.6 215.303 24.6C214.53 24.6 213.717 24.4667 212.863 24.2C212.037 23.9333 211.157 23.68 210.223 23.44C209.317 23.1733 208.343 23.04 207.303 23.04C206.37 23.04 205.663 23.1867 205.183 23.48C204.703 23.7467 204.463 24.1067 204.463 24.56C204.463 25.12 204.783 25.5333 205.423 25.8C206.063 26.0667 207.117 26.3867 208.583 26.76L210.823 27.28C212.663 27.7333 214.277 28.28 215.663 28.92C217.05 29.56 218.13 30.4 218.903 31.44C219.677 32.48 220.063 33.84 220.063 35.52C220.063 37.5467 219.583 39.2 218.623 40.48C217.663 41.7333 216.33 42.6533 214.623 43.24C212.917 43.8267 210.917 44.12 208.623 44.12ZM231.618 44.12C229.538 44.12 227.698 43.6933 226.098 42.84C224.498 41.96 223.244 40.72 222.338 39.12C221.431 37.52 220.978 35.64 220.978 33.48C220.978 31.32 221.431 29.44 222.338 27.84C223.244 26.24 224.498 25 226.098 24.12C227.724 23.24 229.591 22.8 231.698 22.8C233.351 22.8 234.804 22.9733 236.058 23.32C237.338 23.6667 238.338 24.1867 239.058 24.88C239.804 25.5733 240.178 26.44 240.178 27.48C240.178 28.7333 239.858 29.72 239.218 30.44C238.578 31.1333 237.658 31.48 236.458 31.48C235.658 31.48 234.858 31.36 234.058 31.12C233.284 30.88 232.284 30.76 231.058 30.76C230.044 30.76 229.191 30.92 228.498 31.24C227.804 31.56 227.458 32.1467 227.458 33C227.458 33.88 227.804 34.52 228.498 34.92C229.191 35.2933 230.044 35.48 231.058 35.48C231.884 35.48 232.578 35.4 233.138 35.24C233.698 35.08 234.231 34.92 234.738 34.76C235.244 34.6 235.818 34.52 236.458 34.52C237.818 34.52 238.818 34.92 239.458 35.72C240.124 36.4933 240.458 37.4933 240.458 38.72C240.458 39.76 240.071 40.6933 239.298 41.52C238.524 42.32 237.471 42.96 236.138 43.44C234.804 43.8933 233.298 44.12 231.618 44.12ZM251.73 44.08C248.61 44.08 246.117 43.16 244.25 41.32C242.41 39.4533 241.49 36.8267 241.49 33.44C241.49 31.36 241.917 29.5333 242.77 27.96C243.624 26.3867 244.81 25.16 246.33 24.28C247.877 23.3733 249.677 22.92 251.73 22.92C254.024 22.92 255.93 23.3733 257.45 24.28C258.97 25.16 260.104 26.3867 260.85 27.96C261.624 29.5333 262.01 31.36 262.01 33.44C262.01 36.8267 261.157 39.4533 259.45 41.32C257.77 43.16 255.197 44.08 251.73 44.08ZM246.25 32.76C246.25 33.5867 246.664 34.1733 247.49 34.52C248.317 34.84 249.73 35 251.73 35C253.73 35 255.144 34.84 255.97 34.52C256.797 34.1733 257.21 33.5867 257.21 32.76C257.21 31.96 256.797 31.4 255.97 31.08C255.144 30.76 253.73 30.6 251.73 30.6C249.73 30.6 248.317 30.76 247.49 31.08C246.664 31.4 246.25 31.96 246.25 32.76ZM267.915 44C266.662 44 265.688 43.64 264.995 42.92C264.302 42.2 263.955 41.2933 263.955 40.2V27.08C263.955 25.9333 264.302 24.9867 264.995 24.24C265.688 23.4667 266.662 23.08 267.915 23.08C269.168 23.08 270.128 23.4667 270.795 24.24C271.462 24.9867 271.795 25.9067 271.795 27V27.84H272.555C272.662 26.4267 273.195 25.2667 274.155 24.36C275.115 23.4533 276.248 23 277.555 23C278.862 23 279.888 23.4 280.635 24.2C281.408 25 281.795 26.0667 281.795 27.4C281.795 28.6533 281.435 29.6933 280.715 30.52C279.995 31.3467 279.075 31.76 277.955 31.76C277.022 31.76 276.235 31.5467 275.595 31.12C274.982 30.6667 274.528 30.1467 274.235 29.56C273.382 29.4533 272.755 29.5467 272.355 29.84C271.982 30.1067 271.795 30.6533 271.795 31.48V40.2C271.795 41.2933 271.462 42.2 270.795 42.92C270.128 43.64 269.168 44 267.915 44ZM283.092 18.44C283.092 17.2933 283.439 16.3733 284.132 15.68C284.852 14.96 285.839 14.6 287.092 14.6C288.425 14.6 289.412 14.9467 290.052 15.64C290.719 16.3333 291.052 17.2533 291.052 18.4C291.052 19.52 290.719 20.4267 290.052 21.12C289.412 21.7867 288.425 22.12 287.092 22.12C285.785 22.12 284.785 21.7867 284.092 21.12C283.425 20.4267 283.092 19.5333 283.092 18.44ZM287.092 44C285.839 44 284.905 43.6533 284.292 42.96C283.679 42.2667 283.372 41.4 283.372 40.36V26.68C283.372 25.5333 283.679 24.6267 284.292 23.96C284.905 23.2933 285.839 22.96 287.092 22.96C288.345 22.96 289.279 23.2933 289.892 23.96C290.532 24.6267 290.852 25.5067 290.852 26.6V40.36C290.852 41.4 290.519 42.2667 289.852 42.96C289.212 43.6533 288.292 44 287.092 44ZM296.937 44C295.763 44 294.817 43.6533 294.097 42.96C293.403 42.24 293.057 41.36 293.057 40.32V27.08C293.057 25.96 293.39 25.0133 294.057 24.24C294.723 23.4667 295.683 23.08 296.937 23.08C298.163 23.08 299.097 23.4667 299.737 24.24C300.377 25.0133 300.697 25.9867 300.697 27.16V29.16H301.417C301.417 27.64 301.683 26.44 302.217 25.56C302.777 24.68 303.483 24.0533 304.337 23.68C305.19 23.28 306.043 23.08 306.897 23.08C308.95 23.08 310.457 23.8267 311.417 25.32C312.377 26.7867 312.857 28.88 312.857 31.6V40.32C312.857 41.36 312.51 42.24 311.817 42.96C311.123 43.6533 310.19 44 309.017 44C307.817 44 306.857 43.6533 306.137 42.96C305.443 42.24 305.097 41.36 305.097 40.32V33.24C305.097 32.28 304.91 31.5333 304.537 31C304.19 30.4667 303.67 30.2 302.977 30.2C302.177 30.2 301.59 30.4933 301.217 31.08C300.87 31.6667 300.697 32.4133 300.697 33.32V40.32C300.697 41.36 300.363 42.24 299.697 42.96C299.03 43.6533 298.11 44 296.937 44ZM324.252 52.24C322.625 52.24 321.238 52.0667 320.092 51.72C318.972 51.3733 317.892 50.84 316.852 50.12C315.945 49.48 315.305 48.5867 314.932 47.44C314.558 46.2933 314.745 45.1333 315.492 43.96C315.972 43.24 316.505 42.7467 317.092 42.48C317.705 42.2133 318.292 42.1067 318.852 42.16C319.438 42.1867 319.945 42.3067 320.372 42.52C321.305 42.9733 322.025 43.3067 322.532 43.52C323.065 43.7067 323.665 43.8 324.332 43.8C325.318 43.8 326.145 43.4533 326.812 42.76C327.505 42.0667 327.852 41.0933 327.852 39.84V36.6H327.132C326.945 38.0133 326.398 39.1333 325.492 39.96C324.612 40.76 323.398 41.16 321.852 41.16C320.678 41.16 319.532 40.8667 318.412 40.28C317.292 39.6933 316.372 38.76 315.652 37.48C314.932 36.2 314.572 34.5067 314.572 32.4C314.572 29.3067 315.252 27 316.612 25.48C317.972 23.96 319.732 23.2 321.892 23.2C323.385 23.2 324.665 23.7067 325.732 24.72C326.798 25.7067 327.332 27.0933 327.332 28.88L327.452 28.84V26.6C327.452 25.6667 327.745 24.8533 328.332 24.16C328.945 23.44 329.892 23.08 331.172 23.08C332.532 23.08 333.505 23.44 334.092 24.16C334.705 24.8533 335.012 25.6667 335.012 26.6L335.052 39.2C335.078 41.9733 334.732 44.3333 334.012 46.28C333.318 48.2267 332.172 49.7067 330.572 50.72C328.998 51.7333 326.892 52.24 324.252 52.24ZM321.292 31.72C321.292 33.16 322.252 33.88 324.172 33.88C325.425 33.88 326.305 33.7067 326.812 33.36C327.318 33.0133 327.572 32.4667 327.572 31.72C327.572 30.9467 327.305 30.4133 326.772 30.12C326.265 29.8267 325.385 29.68 324.132 29.68C323.225 29.68 322.518 29.8267 322.012 30.12C321.532 30.4133 321.292 30.9467 321.292 31.72Z" fill="#3881A2"/>
<defs>
<linearGradient id="paint0_linear_4009_1371" x1="20" y1="6.77393" x2="20" y2="46.226" gradientUnits="userSpaceOnUse">
<stop stop-color="#3881A2"/>
<stop offset="1" stop-color="#50ACB7"/>
</linearGradient>
</defs>
</svg>
